<svg xmlns="http://www.w3.org/2000/svg" width="1836" height="567" viewBox="0 0 1836 567">
<rect width="100%" height="100%" fill="white"/>
<text x="918.0" y="38" text-anchor="middle" font-family="Arial" font-size="26" font-weight="bold">Sunflower final genetic map: marker density in 10 cM bins</text>
<text x="150" y="85" font-family="Arial" font-size="20" font-weight="bold">BWA exact unique, 21,442 markers</text>
<text x="194.0" y="115" text-anchor="middle" font-family="Arial" font-size="13">chr1</text>
<text x="282.0" y="115" text-anchor="middle" font-family="Arial" font-size="13">chr2</text>
<text x="370.0" y="115" text-anchor="middle" font-family="Arial" font-size="13">chr3</text>
<text x="458.0" y="115" text-anchor="middle" font-family="Arial" font-size="13">chr4</text>
<text x="546.0" y="115" text-anchor="middle" font-family="Arial" font-size="13">chr5</text>
<text x="634.0" y="115" text-anchor="middle" font-family="Arial" font-size="13">chr6</text>
<text x="722.0" y="115" text-anchor="middle" font-family="Arial" font-size="13">chr7</text>
<text x="810.0" y="115" text-anchor="middle" font-family="Arial" font-size="13">chr8</text>
<text x="898.0" y="115" text-anchor="middle" font-family="Arial" font-size="13">chr9</text>
<text x="986.0" y="115" text-anchor="middle" font-family="Arial" font-size="13">chr10</text>
<text x="1074.0" y="115" text-anchor="middle" font-family="Arial" font-size="13">chr11</text>
<text x="1162.0" y="115" text-anchor="middle" font-family="Arial" font-size="13">chr12</text>
<text x="1250.0" y="115" text-anchor="middle" font-family="Arial" font-size="13">chr13</text>
<text x="1338.0" y="115" text-anchor="middle" font-family="Arial" font-size="13">chr14</text>
<text x="1426.0" y="115" text-anchor="middle" font-family="Arial" font-size="13">chr15</text>
<text x="1514.0" y="115" text-anchor="middle" font-family="Arial" font-size="13">chr16</text>
<text x="1602.0" y="115" text-anchor="middle" font-family="Arial" font-size="13">chr17</text>
<text x="135" y="146" text-anchor="end" font-family="Arial" font-size="12">0-10</text>
<rect x="150" y="127" width="84" height="27" fill="rgb(227,227,227)" stroke="white"/>
<text x="192.0" y="146" text-anchor="middle" font-family="Arial" font-size="12" fill="black">153</text>
<rect x="238" y="127" width="84" height="27" fill="rgb(244,244,244)" stroke="white"/>
<text x="280.0" y="146" text-anchor="middle" font-family="Arial" font-size="12" fill="black">60</text>
<rect x="326" y="127" width="84" height="27" fill="rgb(239,239,239)" stroke="white"/>
<text x="368.0" y="146" text-anchor="middle" font-family="Arial" font-size="12" fill="black">90</text>
<rect x="414" y="127" width="84" height="27" fill="rgb(245,245,245)" stroke="white"/>
<text x="456.0" y="146" text-anchor="middle" font-family="Arial" font-size="12" fill="black">58</text>
<rect x="502" y="127" width="84" height="27" fill="rgb(242,242,242)" stroke="white"/>
<text x="544.0" y="146" text-anchor="middle" font-family="Arial" font-size="12" fill="black">72</text>
<rect x="590" y="127" width="84" height="27" fill="rgb(236,236,236)" stroke="white"/>
<text x="632.0" y="146" text-anchor="middle" font-family="Arial" font-size="12" fill="black">105</text>
<rect x="678" y="127" width="84" height="27" fill="rgb(241,241,241)" stroke="white"/>
<text x="720.0" y="146" text-anchor="middle" font-family="Arial" font-size="12" fill="black">77</text>
<rect x="766" y="127" width="84" height="27" fill="rgb(232,232,232)" stroke="white"/>
<text x="808.0" y="146" text-anchor="middle" font-family="Arial" font-size="12" fill="black">127</text>
<rect x="854" y="127" width="84" height="27" fill="rgb(246,246,246)" stroke="white"/>
<text x="896.0" y="146" text-anchor="middle" font-family="Arial" font-size="12" fill="black">49</text>
<rect x="942" y="127" width="84" height="27" fill="rgb(242,242,242)" stroke="white"/>
<text x="984.0" y="146" text-anchor="middle" font-family="Arial" font-size="12" fill="black">72</text>
<rect x="1030" y="127" width="84" height="27" fill="rgb(241,241,241)" stroke="white"/>
<text x="1072.0" y="146" text-anchor="middle" font-family="Arial" font-size="12" fill="black">78</text>
<rect x="1118" y="127" width="84" height="27" fill="rgb(234,234,234)" stroke="white"/>
<text x="1160.0" y="146" text-anchor="middle" font-family="Arial" font-size="12" fill="black">115</text>
<rect x="1206" y="127" width="84" height="27" fill="rgb(198,198,198)" stroke="white"/>
<text x="1248.0" y="146" text-anchor="middle" font-family="Arial" font-size="12" fill="black">313</text>
<rect x="1294" y="127" width="84" height="27" fill="rgb(197,197,197)" stroke="white"/>
<text x="1336.0" y="146" text-anchor="middle" font-family="Arial" font-size="12" fill="black">319</text>
<rect x="1382" y="127" width="84" height="27" fill="rgb(241,241,241)" stroke="white"/>
<text x="1424.0" y="146" text-anchor="middle" font-family="Arial" font-size="12" fill="black">79</text>
<rect x="1470" y="127" width="84" height="27" fill="rgb(226,226,226)" stroke="white"/>
<text x="1512.0" y="146" text-anchor="middle" font-family="Arial" font-size="12" fill="black">162</text>
<rect x="1558" y="127" width="84" height="27" fill="rgb(243,243,243)" stroke="white"/>
<text x="1600.0" y="146" text-anchor="middle" font-family="Arial" font-size="12" fill="black">66</text>
<text x="135" y="176" text-anchor="end" font-family="Arial" font-size="12">10-20</text>
<rect x="150" y="157" width="84" height="27" fill="rgb(216,216,216)" stroke="white"/>
<text x="192.0" y="176" text-anchor="middle" font-family="Arial" font-size="12" fill="black">216</text>
<rect x="238" y="157" width="84" height="27" fill="rgb(249,249,249)" stroke="white"/>
<text x="280.0" y="176" text-anchor="middle" font-family="Arial" font-size="12" fill="black">35</text>
<rect x="326" y="157" width="84" height="27" fill="rgb(213,213,213)" stroke="white"/>
<text x="368.0" y="176" text-anchor="middle" font-family="Arial" font-size="12" fill="black">231</text>
<rect x="414" y="157" width="84" height="27" fill="rgb(240,240,240)" stroke="white"/>
<text x="456.0" y="176" text-anchor="middle" font-family="Arial" font-size="12" fill="black">84</text>
<rect x="502" y="157" width="84" height="27" fill="rgb(250,250,250)" stroke="white"/>
<text x="544.0" y="176" text-anchor="middle" font-family="Arial" font-size="12" fill="black">32</text>
<rect x="590" y="157" width="84" height="27" fill="rgb(242,242,242)" stroke="white"/>
<text x="632.0" y="176" text-anchor="middle" font-family="Arial" font-size="12" fill="black">71</text>
<rect x="678" y="157" width="84" height="27" fill="rgb(203,203,203)" stroke="white"/>
<text x="720.0" y="176" text-anchor="middle" font-family="Arial" font-size="12" fill="black">285</text>
<rect x="766" y="157" width="84" height="27" fill="rgb(209,209,209)" stroke="white"/>
<text x="808.0" y="176" text-anchor="middle" font-family="Arial" font-size="12" fill="black">252</text>
<rect x="854" y="157" width="84" height="27" fill="rgb(225,225,225)" stroke="white"/>
<text x="896.0" y="176" text-anchor="middle" font-family="Arial" font-size="12" fill="black">167</text>
<rect x="942" y="157" width="84" height="27" fill="rgb(230,230,230)" stroke="white"/>
<text x="984.0" y="176" text-anchor="middle" font-family="Arial" font-size="12" fill="black">136</text>
<rect x="1030" y="157" width="84" height="27" fill="rgb(245,245,245)" stroke="white"/>
<text x="1072.0" y="176" text-anchor="middle" font-family="Arial" font-size="12" fill="black">56</text>
<rect x="1118" y="157" width="84" height="27" fill="rgb(247,247,247)" stroke="white"/>
<text x="1160.0" y="176" text-anchor="middle" font-family="Arial" font-size="12" fill="black">44</text>
<rect x="1206" y="157" width="84" height="27" fill="rgb(244,244,244)" stroke="white"/>
<text x="1248.0" y="176" text-anchor="middle" font-family="Arial" font-size="12" fill="black">63</text>
<rect x="1294" y="157" width="84" height="27" fill="rgb(238,238,238)" stroke="white"/>
<text x="1336.0" y="176" text-anchor="middle" font-family="Arial" font-size="12" fill="black">97</text>
<rect x="1382" y="157" width="84" height="27" fill="rgb(249,249,249)" stroke="white"/>
<text x="1424.0" y="176" text-anchor="middle" font-family="Arial" font-size="12" fill="black">34</text>
<rect x="1470" y="157" width="84" height="27" fill="rgb(249,249,249)" stroke="white"/>
<text x="1512.0" y="176" text-anchor="middle" font-family="Arial" font-size="12" fill="black">37</text>
<rect x="1558" y="157" width="84" height="27" fill="rgb(252,252,252)" stroke="white"/>
<text x="1600.0" y="176" text-anchor="middle" font-family="Arial" font-size="12" fill="black">18</text>
<text x="135" y="206" text-anchor="end" font-family="Arial" font-size="12">20-30</text>
<rect x="150" y="187" width="84" height="27" fill="rgb(240,240,240)" stroke="white"/>
<text x="192.0" y="206" text-anchor="middle" font-family="Arial" font-size="12" fill="black">86</text>
<rect x="238" y="187" width="84" height="27" fill="rgb(223,223,223)" stroke="white"/>
<text x="280.0" y="206" text-anchor="middle" font-family="Arial" font-size="12" fill="black">177</text>
<rect x="326" y="187" width="84" height="27" fill="rgb(238,238,238)" stroke="white"/>
<text x="368.0" y="206" text-anchor="middle" font-family="Arial" font-size="12" fill="black">96</text>
<rect x="414" y="187" width="84" height="27" fill="rgb(238,238,238)" stroke="white"/>
<text x="456.0" y="206" text-anchor="middle" font-family="Arial" font-size="12" fill="black">97</text>
<rect x="502" y="187" width="84" height="27" fill="rgb(241,241,241)" stroke="white"/>
<text x="544.0" y="206" text-anchor="middle" font-family="Arial" font-size="12" fill="black">79</text>
<rect x="590" y="187" width="84" height="27" fill="rgb(245,245,245)" stroke="white"/>
<text x="632.0" y="206" text-anchor="middle" font-family="Arial" font-size="12" fill="black">55</text>
<rect x="678" y="187" width="84" height="27" fill="rgb(243,243,243)" stroke="white"/>
<text x="720.0" y="206" text-anchor="middle" font-family="Arial" font-size="12" fill="black">68</text>
<rect x="766" y="187" width="84" height="27" fill="rgb(233,233,233)" stroke="white"/>
<text x="808.0" y="206" text-anchor="middle" font-family="Arial" font-size="12" fill="black">124</text>
<rect x="854" y="187" width="84" height="27" fill="rgb(165,165,165)" stroke="white"/>
<text x="896.0" y="206" text-anchor="middle" font-family="Arial" font-size="12" fill="black">493</text>
<rect x="942" y="187" width="84" height="27" fill="rgb(236,236,236)" stroke="white"/>
<text x="984.0" y="206" text-anchor="middle" font-family="Arial" font-size="12" fill="black">108</text>
<rect x="1030" y="187" width="84" height="27" fill="rgb(246,246,246)" stroke="white"/>
<text x="1072.0" y="206" text-anchor="middle" font-family="Arial" font-size="12" fill="black">50</text>
<rect x="1118" y="187" width="84" height="27" fill="rgb(225,225,225)" stroke="white"/>
<text x="1160.0" y="206" text-anchor="middle" font-family="Arial" font-size="12" fill="black">164</text>
<rect x="1206" y="187" width="84" height="27" fill="rgb(242,242,242)" stroke="white"/>
<text x="1248.0" y="206" text-anchor="middle" font-family="Arial" font-size="12" fill="black">72</text>
<rect x="1294" y="187" width="84" height="27" fill="rgb(185,185,185)" stroke="white"/>
<text x="1336.0" y="206" text-anchor="middle" font-family="Arial" font-size="12" fill="black">384</text>
<rect x="1382" y="187" width="84" height="27" fill="rgb(231,231,231)" stroke="white"/>
<text x="1424.0" y="206" text-anchor="middle" font-family="Arial" font-size="12" fill="black">134</text>
<rect x="1470" y="187" width="84" height="27" fill="rgb(251,251,251)" stroke="white"/>
<text x="1512.0" y="206" text-anchor="middle" font-family="Arial" font-size="12" fill="black">27</text>
<rect x="1558" y="187" width="84" height="27" fill="rgb(231,231,231)" stroke="white"/>
<text x="1600.0" y="206" text-anchor="middle" font-family="Arial" font-size="12" fill="black">133</text>
<text x="135" y="236" text-anchor="end" font-family="Arial" font-size="12">30-40</text>
<rect x="150" y="217" width="84" height="27" fill="rgb(186,186,186)" stroke="white"/>
<text x="192.0" y="236" text-anchor="middle" font-family="Arial" font-size="12" fill="black">377</text>
<rect x="238" y="217" width="84" height="27" fill="rgb(225,225,225)" stroke="white"/>
<text x="280.0" y="236" text-anchor="middle" font-family="Arial" font-size="12" fill="black">163</text>
<rect x="326" y="217" width="84" height="27" fill="rgb(191,191,191)" stroke="white"/>
<text x="368.0" y="236" text-anchor="middle" font-family="Arial" font-size="12" fill="black">352</text>
<rect x="414" y="217" width="84" height="27" fill="rgb(248,248,248)" stroke="white"/>
<text x="456.0" y="236" text-anchor="middle" font-family="Arial" font-size="12" fill="black">38</text>
<rect x="502" y="217" width="84" height="27" fill="rgb(190,190,190)" stroke="white"/>
<text x="544.0" y="236" text-anchor="middle" font-family="Arial" font-size="12" fill="black">356</text>
<rect x="590" y="217" width="84" height="27" fill="rgb(206,206,206)" stroke="white"/>
<text x="632.0" y="236" text-anchor="middle" font-family="Arial" font-size="12" fill="black">268</text>
<rect x="678" y="217" width="84" height="27" fill="rgb(242,242,242)" stroke="white"/>
<text x="720.0" y="236" text-anchor="middle" font-family="Arial" font-size="12" fill="black">75</text>
<rect x="766" y="217" width="84" height="27" fill="rgb(220,220,220)" stroke="white"/>
<text x="808.0" y="236" text-anchor="middle" font-family="Arial" font-size="12" fill="black">195</text>
<rect x="854" y="217" width="84" height="27" fill="rgb(229,229,229)" stroke="white"/>
<text x="896.0" y="236" text-anchor="middle" font-family="Arial" font-size="12" fill="black">145</text>
<rect x="942" y="217" width="84" height="27" fill="rgb(55,55,55)" stroke="white"/>
<text x="984.0" y="236" text-anchor="middle" font-family="Arial" font-size="12" fill="white">1085</text>
<rect x="1030" y="217" width="84" height="27" fill="rgb(237,237,237)" stroke="white"/>
<text x="1072.0" y="236" text-anchor="middle" font-family="Arial" font-size="12" fill="black">98</text>
<rect x="1118" y="217" width="84" height="27" fill="rgb(216,216,216)" stroke="white"/>
<text x="1160.0" y="236" text-anchor="middle" font-family="Arial" font-size="12" fill="black">212</text>
<rect x="1206" y="217" width="84" height="27" fill="rgb(214,214,214)" stroke="white"/>
<text x="1248.0" y="236" text-anchor="middle" font-family="Arial" font-size="12" fill="black">224</text>
<rect x="1294" y="217" width="84" height="27" fill="rgb(221,221,221)" stroke="white"/>
<text x="1336.0" y="236" text-anchor="middle" font-family="Arial" font-size="12" fill="black">187</text>
<rect x="1382" y="217" width="84" height="27" fill="rgb(201,201,201)" stroke="white"/>
<text x="1424.0" y="236" text-anchor="middle" font-family="Arial" font-size="12" fill="black">296</text>
<rect x="1470" y="217" width="84" height="27" fill="rgb(238,238,238)" stroke="white"/>
<text x="1512.0" y="236" text-anchor="middle" font-family="Arial" font-size="12" fill="black">94</text>
<rect x="1558" y="217" width="84" height="27" fill="rgb(228,228,228)" stroke="white"/>
<text x="1600.0" y="236" text-anchor="middle" font-family="Arial" font-size="12" fill="black">151</text>
<text x="135" y="266" text-anchor="end" font-family="Arial" font-size="12">40-50</text>
<rect x="150" y="247" width="84" height="27" fill="rgb(236,236,236)" stroke="white"/>
<text x="192.0" y="266" text-anchor="middle" font-family="Arial" font-size="12" fill="black">104</text>
<rect x="238" y="247" width="84" height="27" fill="rgb(235,235,235)" stroke="white"/>
<text x="280.0" y="266" text-anchor="middle" font-family="Arial" font-size="12" fill="black">112</text>
<rect x="326" y="247" width="84" height="27" fill="rgb(193,193,193)" stroke="white"/>
<text x="368.0" y="266" text-anchor="middle" font-family="Arial" font-size="12" fill="black">341</text>
<rect x="414" y="247" width="84" height="27" fill="rgb(193,193,193)" stroke="white"/>
<text x="456.0" y="266" text-anchor="middle" font-family="Arial" font-size="12" fill="black">340</text>
<rect x="502" y="247" width="84" height="27" fill="rgb(167,167,167)" stroke="white"/>
<text x="544.0" y="266" text-anchor="middle" font-family="Arial" font-size="12" fill="black">481</text>
<rect x="590" y="247" width="84" height="27" fill="rgb(227,227,227)" stroke="white"/>
<text x="632.0" y="266" text-anchor="middle" font-family="Arial" font-size="12" fill="black">156</text>
<rect x="678" y="247" width="84" height="27" fill="rgb(247,247,247)" stroke="white"/>
<text x="720.0" y="266" text-anchor="middle" font-family="Arial" font-size="12" fill="black">48</text>
<rect x="766" y="247" width="84" height="27" fill="rgb(187,187,187)" stroke="white"/>
<text x="808.0" y="266" text-anchor="middle" font-family="Arial" font-size="12" fill="black">370</text>
<rect x="854" y="247" width="84" height="27" fill="rgb(234,234,234)" stroke="white"/>
<text x="896.0" y="266" text-anchor="middle" font-family="Arial" font-size="12" fill="black">116</text>
<rect x="942" y="247" width="84" height="27" fill="rgb(137,137,137)" stroke="white"/>
<text x="984.0" y="266" text-anchor="middle" font-family="Arial" font-size="12" fill="black">645</text>
<rect x="1030" y="247" width="84" height="27" fill="rgb(206,206,206)" stroke="white"/>
<text x="1072.0" y="266" text-anchor="middle" font-family="Arial" font-size="12" fill="black">268</text>
<rect x="1118" y="247" width="84" height="27" fill="rgb(200,200,200)" stroke="white"/>
<text x="1160.0" y="266" text-anchor="middle" font-family="Arial" font-size="12" fill="black">301</text>
<rect x="1206" y="247" width="84" height="27" fill="rgb(173,173,173)" stroke="white"/>
<text x="1248.0" y="266" text-anchor="middle" font-family="Arial" font-size="12" fill="black">447</text>
<rect x="1294" y="247" width="84" height="27" fill="rgb(244,244,244)" stroke="white"/>
<text x="1336.0" y="266" text-anchor="middle" font-family="Arial" font-size="12" fill="black">65</text>
<rect x="1382" y="247" width="84" height="27" fill="rgb(234,234,234)" stroke="white"/>
<text x="1424.0" y="266" text-anchor="middle" font-family="Arial" font-size="12" fill="black">116</text>
<rect x="1470" y="247" width="84" height="27" fill="rgb(199,199,199)" stroke="white"/>
<text x="1512.0" y="266" text-anchor="middle" font-family="Arial" font-size="12" fill="black">304</text>
<rect x="1558" y="247" width="84" height="27" fill="rgb(105,105,105)" stroke="white"/>
<text x="1600.0" y="266" text-anchor="middle" font-family="Arial" font-size="12" fill="white">817</text>
<text x="135" y="296" text-anchor="end" font-family="Arial" font-size="12">50-60</text>
<rect x="150" y="277" width="84" height="27" fill="rgb(242,242,242)" stroke="white"/>
<text x="192.0" y="296" text-anchor="middle" font-family="Arial" font-size="12" fill="black">74</text>
<rect x="238" y="277" width="84" height="27" fill="rgb(255,255,255)" stroke="white"/>
<text x="280.0" y="296" text-anchor="middle" font-family="Arial" font-size="12" fill="black">5</text>
<rect x="326" y="277" width="84" height="27" fill="rgb(222,222,222)" stroke="white"/>
<text x="368.0" y="296" text-anchor="middle" font-family="Arial" font-size="12" fill="black">184</text>
<rect x="414" y="277" width="84" height="27" fill="rgb(200,200,200)" stroke="white"/>
<text x="456.0" y="296" text-anchor="middle" font-family="Arial" font-size="12" fill="black">303</text>
<rect x="502" y="277" width="84" height="27" fill="rgb(184,184,184)" stroke="white"/>
<text x="544.0" y="296" text-anchor="middle" font-family="Arial" font-size="12" fill="black">386</text>
<rect x="590" y="277" width="84" height="27" fill="rgb(248,248,248)" stroke="white"/>
<text x="632.0" y="296" text-anchor="middle" font-family="Arial" font-size="12" fill="black">38</text>
<rect x="678" y="277" width="84" height="27" fill="rgb(245,245,245)" stroke="white"/>
<text x="720.0" y="296" text-anchor="middle" font-family="Arial" font-size="12" fill="black">57</text>
<rect x="766" y="277" width="84" height="27" fill="rgb(218,218,218)" stroke="white"/>
<text x="808.0" y="296" text-anchor="middle" font-family="Arial" font-size="12" fill="black">203</text>
<rect x="854" y="277" width="84" height="27" fill="rgb(163,163,163)" stroke="white"/>
<text x="896.0" y="296" text-anchor="middle" font-family="Arial" font-size="12" fill="black">501</text>
<rect x="942" y="277" width="84" height="27" fill="rgb(239,239,239)" stroke="white"/>
<text x="984.0" y="296" text-anchor="middle" font-family="Arial" font-size="12" fill="black">90</text>
<rect x="1030" y="277" width="84" height="27" fill="rgb(229,229,229)" stroke="white"/>
<text x="1072.0" y="296" text-anchor="middle" font-family="Arial" font-size="12" fill="black">144</text>
<rect x="1118" y="277" width="84" height="27" fill="rgb(198,198,198)" stroke="white"/>
<text x="1160.0" y="296" text-anchor="middle" font-family="Arial" font-size="12" fill="black">314</text>
<rect x="1206" y="277" width="84" height="27" fill="rgb(214,214,214)" stroke="white"/>
<text x="1248.0" y="296" text-anchor="middle" font-family="Arial" font-size="12" fill="black">223</text>
<rect x="1294" y="277" width="84" height="27" fill="rgb(236,236,236)" stroke="white"/>
<text x="1336.0" y="296" text-anchor="middle" font-family="Arial" font-size="12" fill="black">105</text>
<rect x="1382" y="277" width="84" height="27" fill="rgb(245,245,245)" stroke="white"/>
<text x="1424.0" y="296" text-anchor="middle" font-family="Arial" font-size="12" fill="black">58</text>
<rect x="1470" y="277" width="84" height="27" fill="rgb(193,193,193)" stroke="white"/>
<text x="1512.0" y="296" text-anchor="middle" font-family="Arial" font-size="12" fill="black">339</text>
<rect x="1558" y="277" width="84" height="27" fill="rgb(197,197,197)" stroke="white"/>
<text x="1600.0" y="296" text-anchor="middle" font-family="Arial" font-size="12" fill="black">315</text>
<text x="135" y="326" text-anchor="end" font-family="Arial" font-size="12">60-70</text>
<rect x="150" y="307" width="84" height="27" fill="rgb(248,248,248)" stroke="white"/>
<text x="192.0" y="326" text-anchor="middle" font-family="Arial" font-size="12" fill="black">43</text>
<rect x="238" y="307" width="84" height="27" fill="rgb(246,246,246)" stroke="white"/>
<text x="280.0" y="326" text-anchor="middle" font-family="Arial" font-size="12" fill="black">51</text>
<rect x="326" y="307" width="84" height="27" fill="rgb(234,234,234)" stroke="white"/>
<text x="368.0" y="326" text-anchor="middle" font-family="Arial" font-size="12" fill="black">119</text>
<rect x="414" y="307" width="84" height="27" fill="rgb(221,221,221)" stroke="white"/>
<text x="456.0" y="326" text-anchor="middle" font-family="Arial" font-size="12" fill="black">186</text>
<rect x="502" y="307" width="84" height="27" fill="rgb(240,240,240)" stroke="white"/>
<text x="544.0" y="326" text-anchor="middle" font-family="Arial" font-size="12" fill="black">83</text>
<rect x="590" y="307" width="84" height="27" fill="rgb(255,255,255)" stroke="white"/>
<rect x="678" y="307" width="84" height="27" fill="rgb(248,248,248)" stroke="white"/>
<text x="720.0" y="326" text-anchor="middle" font-family="Arial" font-size="12" fill="black">38</text>
<rect x="766" y="307" width="84" height="27" fill="rgb(245,245,245)" stroke="white"/>
<text x="808.0" y="326" text-anchor="middle" font-family="Arial" font-size="12" fill="black">56</text>
<rect x="854" y="307" width="84" height="27" fill="rgb(245,245,245)" stroke="white"/>
<text x="896.0" y="326" text-anchor="middle" font-family="Arial" font-size="12" fill="black">55</text>
<rect x="942" y="307" width="84" height="27" fill="rgb(253,253,253)" stroke="white"/>
<text x="984.0" y="326" text-anchor="middle" font-family="Arial" font-size="12" fill="black">12</text>
<rect x="1030" y="307" width="84" height="27" fill="rgb(243,243,243)" stroke="white"/>
<text x="1072.0" y="326" text-anchor="middle" font-family="Arial" font-size="12" fill="black">66</text>
<rect x="1118" y="307" width="84" height="27" fill="rgb(215,215,215)" stroke="white"/>
<text x="1160.0" y="326" text-anchor="middle" font-family="Arial" font-size="12" fill="black">217</text>
<rect x="1206" y="307" width="84" height="27" fill="rgb(231,231,231)" stroke="white"/>
<text x="1248.0" y="326" text-anchor="middle" font-family="Arial" font-size="12" fill="black">131</text>
<rect x="1294" y="307" width="84" height="27" fill="rgb(249,249,249)" stroke="white"/>
<text x="1336.0" y="326" text-anchor="middle" font-family="Arial" font-size="12" fill="black">37</text>
<rect x="1382" y="307" width="84" height="27" fill="rgb(203,203,203)" stroke="white"/>
<text x="1424.0" y="326" text-anchor="middle" font-family="Arial" font-size="12" fill="black">285</text>
<rect x="1470" y="307" width="84" height="27" fill="rgb(236,236,236)" stroke="white"/>
<text x="1512.0" y="326" text-anchor="middle" font-family="Arial" font-size="12" fill="black">107</text>
<rect x="1558" y="307" width="84" height="27" fill="rgb(246,246,246)" stroke="white"/>
<text x="1600.0" y="326" text-anchor="middle" font-family="Arial" font-size="12" fill="black">53</text>
<text x="135" y="356" text-anchor="end" font-family="Arial" font-size="12">70-80</text>
<rect x="150" y="337" width="84" height="27" fill="rgb(255,255,255)" stroke="white"/>
<rect x="238" y="337" width="84" height="27" fill="rgb(255,255,255)" stroke="white"/>
<rect x="326" y="337" width="84" height="27" fill="rgb(249,249,249)" stroke="white"/>
<text x="368.0" y="356" text-anchor="middle" font-family="Arial" font-size="12" fill="black">36</text>
<rect x="414" y="337" width="84" height="27" fill="rgb(241,241,241)" stroke="white"/>
<text x="456.0" y="356" text-anchor="middle" font-family="Arial" font-size="12" fill="black">77</text>
<rect x="502" y="337" width="84" height="27" fill="rgb(242,242,242)" stroke="white"/>
<text x="544.0" y="356" text-anchor="middle" font-family="Arial" font-size="12" fill="black">71</text>
<rect x="590" y="337" width="84" height="27" fill="rgb(255,255,255)" stroke="white"/>
<rect x="678" y="337" width="84" height="27" fill="rgb(255,255,255)" stroke="white"/>
<rect x="766" y="337" width="84" height="27" fill="rgb(255,255,255)" stroke="white"/>
<rect x="854" y="337" width="84" height="27" fill="rgb(250,250,250)" stroke="white"/>
<text x="896.0" y="356" text-anchor="middle" font-family="Arial" font-size="12" fill="black">31</text>
<rect x="942" y="337" width="84" height="27" fill="rgb(252,252,252)" stroke="white"/>
<text x="984.0" y="356" text-anchor="middle" font-family="Arial" font-size="12" fill="black">17</text>
<rect x="1030" y="337" width="84" height="27" fill="rgb(231,231,231)" stroke="white"/>
<text x="1072.0" y="356" text-anchor="middle" font-family="Arial" font-size="12" fill="black">132</text>
<rect x="1118" y="337" width="84" height="27" fill="rgb(255,255,255)" stroke="white"/>
<rect x="1206" y="337" width="84" height="27" fill="rgb(255,255,255)" stroke="white"/>
<rect x="1294" y="337" width="84" height="27" fill="rgb(253,253,253)" stroke="white"/>
<text x="1336.0" y="356" text-anchor="middle" font-family="Arial" font-size="12" fill="black">12</text>
<rect x="1382" y="337" width="84" height="27" fill="rgb(244,244,244)" stroke="white"/>
<text x="1424.0" y="356" text-anchor="middle" font-family="Arial" font-size="12" fill="black">63</text>
<rect x="1470" y="337" width="84" height="27" fill="rgb(247,247,247)" stroke="white"/>
<text x="1512.0" y="356" text-anchor="middle" font-family="Arial" font-size="12" fill="black">44</text>
<rect x="1558" y="337" width="84" height="27" fill="rgb(254,254,254)" stroke="white"/>
<text x="1600.0" y="356" text-anchor="middle" font-family="Arial" font-size="12" fill="black">9</text>
<text x="135" y="386" text-anchor="end" font-family="Arial" font-size="12">80-90</text>
<rect x="150" y="367" width="84" height="27" fill="rgb(255,255,255)" stroke="white"/>
<rect x="238" y="367" width="84" height="27" fill="rgb(255,255,255)" stroke="white"/>
<rect x="326" y="367" width="84" height="27" fill="rgb(255,255,255)" stroke="white"/>
<rect x="414" y="367" width="84" height="27" fill="rgb(248,248,248)" stroke="white"/>
<text x="456.0" y="386" text-anchor="middle" font-family="Arial" font-size="12" fill="black">42</text>
<rect x="502" y="367" width="84" height="27" fill="rgb(249,249,249)" stroke="white"/>
<text x="544.0" y="386" text-anchor="middle" font-family="Arial" font-size="12" fill="black">37</text>
<rect x="590" y="367" width="84" height="27" fill="rgb(255,255,255)" stroke="white"/>
<rect x="678" y="367" width="84" height="27" fill="rgb(255,255,255)" stroke="white"/>
<rect x="766" y="367" width="84" height="27" fill="rgb(255,255,255)" stroke="white"/>
<rect x="854" y="367" width="84" height="27" fill="rgb(245,245,245)" stroke="white"/>
<text x="896.0" y="386" text-anchor="middle" font-family="Arial" font-size="12" fill="black">56</text>
<rect x="942" y="367" width="84" height="27" fill="rgb(243,243,243)" stroke="white"/>
<text x="984.0" y="386" text-anchor="middle" font-family="Arial" font-size="12" fill="black">70</text>
<rect x="1030" y="367" width="84" height="27" fill="rgb(234,234,234)" stroke="white"/>
<text x="1072.0" y="386" text-anchor="middle" font-family="Arial" font-size="12" fill="black">116</text>
<rect x="1118" y="367" width="84" height="27" fill="rgb(255,255,255)" stroke="white"/>
<rect x="1206" y="367" width="84" height="27" fill="rgb(255,255,255)" stroke="white"/>
<rect x="1294" y="367" width="84" height="27" fill="rgb(255,255,255)" stroke="white"/>
<rect x="1382" y="367" width="84" height="27" fill="rgb(255,255,255)" stroke="white"/>
<rect x="1470" y="367" width="84" height="27" fill="rgb(252,252,252)" stroke="white"/>
<text x="1512.0" y="386" text-anchor="middle" font-family="Arial" font-size="12" fill="black">21</text>
<rect x="1558" y="367" width="84" height="27" fill="rgb(255,255,255)" stroke="white"/>
<text x="135" y="416" text-anchor="end" font-family="Arial" font-size="12">90-100</text>
<rect x="150" y="397" width="84" height="27" fill="rgb(255,255,255)" stroke="white"/>
<rect x="238" y="397" width="84" height="27" fill="rgb(255,255,255)" stroke="white"/>
<rect x="326" y="397" width="84" height="27" fill="rgb(255,255,255)" stroke="white"/>
<rect x="414" y="397" width="84" height="27" fill="rgb(241,241,241)" stroke="white"/>
<text x="456.0" y="416" text-anchor="middle" font-family="Arial" font-size="12" fill="black">81</text>
<rect x="502" y="397" width="84" height="27" fill="rgb(255,255,255)" stroke="white"/>
<text x="544.0" y="416" text-anchor="middle" font-family="Arial" font-size="12" fill="black">3</text>
<rect x="590" y="397" width="84" height="27" fill="rgb(255,255,255)" stroke="white"/>
<rect x="678" y="397" width="84" height="27" fill="rgb(255,255,255)" stroke="white"/>
<rect x="766" y="397" width="84" height="27" fill="rgb(255,255,255)" stroke="white"/>
<rect x="854" y="397" width="84" height="27" fill="rgb(244,244,244)" stroke="white"/>
<text x="896.0" y="416" text-anchor="middle" font-family="Arial" font-size="12" fill="black">63</text>
<rect x="942" y="397" width="84" height="27" fill="rgb(255,255,255)" stroke="white"/>
<rect x="1030" y="397" width="84" height="27" fill="rgb(255,255,255)" stroke="white"/>
<rect x="1118" y="397" width="84" height="27" fill="rgb(255,255,255)" stroke="white"/>
<rect x="1206" y="397" width="84" height="27" fill="rgb(255,255,255)" stroke="white"/>
<rect x="1294" y="397" width="84" height="27" fill="rgb(255,255,255)" stroke="white"/>
<rect x="1382" y="397" width="84" height="27" fill="rgb(255,255,255)" stroke="white"/>
<rect x="1470" y="397" width="84" height="27" fill="rgb(249,249,249)" stroke="white"/>
<text x="1512.0" y="416" text-anchor="middle" font-family="Arial" font-size="12" fill="black">36</text>
<rect x="1558" y="397" width="84" height="27" fill="rgb(255,255,255)" stroke="white"/>
<text x="64" y="277.0" transform="rotate(-90 64,277.0)" text-anchor="middle" font-family="Arial" font-size="14">cM interval</text>
<text x="1701" y="85" font-family="Arial" font-size="13">n markers</text>
<rect x="1701" y="100" width="25" height="18" fill="rgb(255,255,255)" stroke="black" stroke-width="0.5"/>
<text x="1736" y="114" font-family="Arial" font-size="12">0</text>
<rect x="1701" y="124" width="25" height="18" fill="rgb(215,215,215)" stroke="black" stroke-width="0.5"/>
<text x="1736" y="138" font-family="Arial" font-size="12">217</text>
<rect x="1701" y="148" width="25" height="18" fill="rgb(175,175,175)" stroke="black" stroke-width="0.5"/>
<text x="1736" y="162" font-family="Arial" font-size="12">434</text>
<rect x="1701" y="172" width="25" height="18" fill="rgb(135,135,135)" stroke="black" stroke-width="0.5"/>
<text x="1736" y="186" font-family="Arial" font-size="12">651</text>
<rect x="1701" y="196" width="25" height="18" fill="rgb(95,95,95)" stroke="black" stroke-width="0.5"/>
<text x="1736" y="210" font-family="Arial" font-size="12">868</text>
<rect x="1701" y="220" width="25" height="18" fill="rgb(55,55,55)" stroke="black" stroke-width="0.5"/>
<text x="1736" y="234" font-family="Arial" font-size="12">1085</text>

</svg>
