<svg xmlns="http://www.w3.org/2000/svg" width="1500" height="1250" viewBox="0 0 1500 1250">
<rect width="100%" height="100%" fill="white"/>
<text x="750.0" y="38" text-anchor="middle" font-family="Arial" font-size="26" font-weight="bold">Cabbage final genetic maps: marker coverage by cM</text>
<text x="130" y="105" font-family="Arial" font-size="20" font-weight="bold">Strict high-confidence, 196 markers</text>
<line x1="105" y1="140" x2="105" y2="530" stroke="black" stroke-width="1"/>
<line x1="100" y1="140.0" x2="105" y2="140.0" stroke="black" stroke-width="1"/>
<text x="92" y="144.0" text-anchor="end" font-family="Arial" font-size="12">0</text>
<line x1="100" y1="218.0" x2="105" y2="218.0" stroke="black" stroke-width="1"/>
<text x="92" y="222.0" text-anchor="end" font-family="Arial" font-size="12">30</text>
<line x1="100" y1="296.0" x2="105" y2="296.0" stroke="black" stroke-width="1"/>
<text x="92" y="300.0" text-anchor="end" font-family="Arial" font-size="12">60</text>
<line x1="100" y1="374.0" x2="105" y2="374.0" stroke="black" stroke-width="1"/>
<text x="92" y="378.0" text-anchor="end" font-family="Arial" font-size="12">90</text>
<line x1="100" y1="452.0" x2="105" y2="452.0" stroke="black" stroke-width="1"/>
<text x="92" y="456.0" text-anchor="end" font-family="Arial" font-size="12">120</text>
<line x1="100" y1="530.0" x2="105" y2="530.0" stroke="black" stroke-width="1"/>
<text x="92" y="534.0" text-anchor="end" font-family="Arial" font-size="12">150</text>
<text x="50" y="335.0" transform="rotate(-90 50,335.0)" text-anchor="middle" font-family="Arial" font-size="14">Genetic position, cM</text>
<line x1="201.66666666666669" y1="140.0" x2="201.66666666666669" y2="353.5848" stroke="black" stroke-width="2"/>
<line x1="192.66666666666669" y1="140.0" x2="210.66666666666669" y2="140.0" stroke="black" stroke-width="1"/>
<line x1="192.66666666666669" y1="197.5406" x2="210.66666666666669" y2="197.5406" stroke="black" stroke-width="1"/>
<line x1="192.66666666666669" y1="216.4296" x2="210.66666666666669" y2="216.4296" stroke="black" stroke-width="1"/>
<line x1="192.66666666666669" y1="240.4094" x2="210.66666666666669" y2="240.4094" stroke="black" stroke-width="1"/>
<line x1="192.66666666666669" y1="248.524" x2="210.66666666666669" y2="248.524" stroke="black" stroke-width="1"/>
<line x1="192.66666666666669" y1="263.9264" x2="210.66666666666669" y2="263.9264" stroke="black" stroke-width="1"/>
<line x1="192.66666666666669" y1="311.7898" x2="210.66666666666669" y2="311.7898" stroke="black" stroke-width="1"/>
<line x1="192.66666666666669" y1="312.7102" x2="210.66666666666669" y2="312.7102" stroke="black" stroke-width="1"/>
<line x1="192.66666666666669" y1="313.8958" x2="210.66666666666669" y2="313.8958" stroke="black" stroke-width="1"/>
<line x1="192.66666666666669" y1="332.2518" x2="210.66666666666669" y2="332.2518" stroke="black" stroke-width="1"/>
<line x1="192.66666666666669" y1="333.5908" x2="210.66666666666669" y2="333.5908" stroke="black" stroke-width="1"/>
<line x1="192.66666666666669" y1="337.223" x2="210.66666666666669" y2="337.223" stroke="black" stroke-width="1"/>
<line x1="192.66666666666669" y1="338.0342" x2="210.66666666666669" y2="338.0342" stroke="black" stroke-width="1"/>
<line x1="192.66666666666669" y1="338.1902" x2="210.66666666666669" y2="338.1902" stroke="black" stroke-width="1"/>
<line x1="192.66666666666669" y1="353.5848" x2="210.66666666666669" y2="353.5848" stroke="black" stroke-width="1"/>
<text x="201.66666666666669" y="558" text-anchor="middle" font-family="Arial" font-size="14">chr1</text>
<text x="201.66666666666669" y="577" text-anchor="middle" font-family="Arial" font-size="12">15</text>
<line x1="345.0" y1="275.17920000000004" x2="345.0" y2="528.9184" stroke="black" stroke-width="2"/>
<line x1="336.0" y1="275.17920000000004" x2="354.0" y2="275.17920000000004" stroke="black" stroke-width="1"/>
<line x1="336.0" y1="295.6386" x2="354.0" y2="295.6386" stroke="black" stroke-width="1"/>
<line x1="336.0" y1="318.7422" x2="354.0" y2="318.7422" stroke="black" stroke-width="1"/>
<line x1="336.0" y1="393.7964" x2="354.0" y2="393.7964" stroke="black" stroke-width="1"/>
<line x1="336.0" y1="410.1478" x2="354.0" y2="410.1478" stroke="black" stroke-width="1"/>
<line x1="336.0" y1="421.35900000000004" x2="354.0" y2="421.35900000000004" stroke="black" stroke-width="1"/>
<line x1="336.0" y1="424.1592" x2="354.0" y2="424.1592" stroke="black" stroke-width="1"/>
<line x1="336.0" y1="437.26840000000004" x2="354.0" y2="437.26840000000004" stroke="black" stroke-width="1"/>
<line x1="336.0" y1="451.28499999999997" x2="354.0" y2="451.28499999999997" stroke="black" stroke-width="1"/>
<line x1="336.0" y1="465.80080000000004" x2="354.0" y2="465.80080000000004" stroke="black" stroke-width="1"/>
<line x1="336.0" y1="465.8268" x2="354.0" y2="465.8268" stroke="black" stroke-width="1"/>
<line x1="336.0" y1="467.4232" x2="354.0" y2="467.4232" stroke="black" stroke-width="1"/>
<line x1="336.0" y1="468.0732" x2="354.0" y2="468.0732" stroke="black" stroke-width="1"/>
<line x1="336.0" y1="468.44500000000005" x2="354.0" y2="468.44500000000005" stroke="black" stroke-width="1"/>
<line x1="336.0" y1="484.7756" x2="354.0" y2="484.7756" stroke="black" stroke-width="1"/>
<line x1="336.0" y1="487.0272" x2="354.0" y2="487.0272" stroke="black" stroke-width="1"/>
<line x1="336.0" y1="498.9326" x2="354.0" y2="498.9326" stroke="black" stroke-width="1"/>
<line x1="336.0" y1="509.37420000000003" x2="354.0" y2="509.37420000000003" stroke="black" stroke-width="1"/>
<line x1="336.0" y1="528.9184" x2="354.0" y2="528.9184" stroke="black" stroke-width="1"/>
<text x="345.0" y="558" text-anchor="middle" font-family="Arial" font-size="14">chr2</text>
<text x="345.0" y="577" text-anchor="middle" font-family="Arial" font-size="12">19</text>
<line x1="488.33333333333337" y1="202.127" x2="488.33333333333337" y2="529.9323999999999" stroke="black" stroke-width="2"/>
<line x1="479.33333333333337" y1="202.127" x2="497.33333333333337" y2="202.127" stroke="black" stroke-width="1"/>
<line x1="479.33333333333337" y1="225.8338" x2="497.33333333333337" y2="225.8338" stroke="black" stroke-width="1"/>
<line x1="479.33333333333337" y1="236.1896" x2="497.33333333333337" y2="236.1896" stroke="black" stroke-width="1"/>
<line x1="479.33333333333337" y1="244.6266" x2="497.33333333333337" y2="244.6266" stroke="black" stroke-width="1"/>
<line x1="479.33333333333337" y1="248.92180000000002" x2="497.33333333333337" y2="248.92180000000002" stroke="black" stroke-width="1"/>
<line x1="479.33333333333337" y1="273.3124" x2="497.33333333333337" y2="273.3124" stroke="black" stroke-width="1"/>
<line x1="479.33333333333337" y1="294.5778" x2="497.33333333333337" y2="294.5778" stroke="black" stroke-width="1"/>
<line x1="479.33333333333337" y1="302.3908" x2="497.33333333333337" y2="302.3908" stroke="black" stroke-width="1"/>
<line x1="479.33333333333337" y1="304.203" x2="497.33333333333337" y2="304.203" stroke="black" stroke-width="1"/>
<line x1="479.33333333333337" y1="315.812" x2="497.33333333333337" y2="315.812" stroke="black" stroke-width="1"/>
<line x1="479.33333333333337" y1="317.2238" x2="497.33333333333337" y2="317.2238" stroke="black" stroke-width="1"/>
<line x1="479.33333333333337" y1="330.3252" x2="497.33333333333337" y2="330.3252" stroke="black" stroke-width="1"/>
<line x1="479.33333333333337" y1="335.4836" x2="497.33333333333337" y2="335.4836" stroke="black" stroke-width="1"/>
<line x1="479.33333333333337" y1="337.9614" x2="497.33333333333337" y2="337.9614" stroke="black" stroke-width="1"/>
<line x1="479.33333333333337" y1="339.1444" x2="497.33333333333337" y2="339.1444" stroke="black" stroke-width="1"/>
<line x1="479.33333333333337" y1="355.30600000000004" x2="497.33333333333337" y2="355.30600000000004" stroke="black" stroke-width="1"/>
<line x1="479.33333333333337" y1="368.8234" x2="497.33333333333337" y2="368.8234" stroke="black" stroke-width="1"/>
<line x1="479.33333333333337" y1="395.5046" x2="497.33333333333337" y2="395.5046" stroke="black" stroke-width="1"/>
<line x1="479.33333333333337" y1="412.0224" x2="497.33333333333337" y2="412.0224" stroke="black" stroke-width="1"/>
<line x1="479.33333333333337" y1="412.3994" x2="497.33333333333337" y2="412.3994" stroke="black" stroke-width="1"/>
<line x1="479.33333333333337" y1="435.5238" x2="497.33333333333337" y2="435.5238" stroke="black" stroke-width="1"/>
<line x1="479.33333333333337" y1="439.54859999999996" x2="497.33333333333337" y2="439.54859999999996" stroke="black" stroke-width="1"/>
<line x1="479.33333333333337" y1="459.0096" x2="497.33333333333337" y2="459.0096" stroke="black" stroke-width="1"/>
<line x1="479.33333333333337" y1="459.6492" x2="497.33333333333337" y2="459.6492" stroke="black" stroke-width="1"/>
<line x1="479.33333333333337" y1="461.1806" x2="497.33333333333337" y2="461.1806" stroke="black" stroke-width="1"/>
<line x1="479.33333333333337" y1="465.1612" x2="497.33333333333337" y2="465.1612" stroke="black" stroke-width="1"/>
<line x1="479.33333333333337" y1="477.0952" x2="497.33333333333337" y2="477.0952" stroke="black" stroke-width="1"/>
<line x1="479.33333333333337" y1="494.5308" x2="497.33333333333337" y2="494.5308" stroke="black" stroke-width="1"/>
<line x1="479.33333333333337" y1="509.0856" x2="497.33333333333337" y2="509.0856" stroke="black" stroke-width="1"/>
<line x1="479.33333333333337" y1="529.9323999999999" x2="497.33333333333337" y2="529.9323999999999" stroke="black" stroke-width="1"/>
<text x="488.33333333333337" y="558" text-anchor="middle" font-family="Arial" font-size="14">chr3</text>
<text x="488.33333333333337" y="577" text-anchor="middle" font-family="Arial" font-size="12">30</text>
<line x1="631.6666666666667" y1="189.7562" x2="631.6666666666667" y2="487.2716" stroke="black" stroke-width="2"/>
<line x1="622.6666666666667" y1="189.7562" x2="640.6666666666667" y2="189.7562" stroke="black" stroke-width="1"/>
<line x1="622.6666666666667" y1="242.7728" x2="640.6666666666667" y2="242.7728" stroke="black" stroke-width="1"/>
<line x1="622.6666666666667" y1="271.8954" x2="640.6666666666667" y2="271.8954" stroke="black" stroke-width="1"/>
<line x1="622.6666666666667" y1="297.0738" x2="640.6666666666667" y2="297.0738" stroke="black" stroke-width="1"/>
<line x1="622.6666666666667" y1="297.53139999999996" x2="640.6666666666667" y2="297.53139999999996" stroke="black" stroke-width="1"/>
<line x1="622.6666666666667" y1="299.46320000000003" x2="640.6666666666667" y2="299.46320000000003" stroke="black" stroke-width="1"/>
<line x1="622.6666666666667" y1="299.692" x2="640.6666666666667" y2="299.692" stroke="black" stroke-width="1"/>
<line x1="622.6666666666667" y1="299.926" x2="640.6666666666667" y2="299.926" stroke="black" stroke-width="1"/>
<line x1="622.6666666666667" y1="301.73040000000003" x2="640.6666666666667" y2="301.73040000000003" stroke="black" stroke-width="1"/>
<line x1="622.6666666666667" y1="302.8198" x2="640.6666666666667" y2="302.8198" stroke="black" stroke-width="1"/>
<line x1="622.6666666666667" y1="303.1942" x2="640.6666666666667" y2="303.1942" stroke="black" stroke-width="1"/>
<line x1="622.6666666666667" y1="321.3292" x2="640.6666666666667" y2="321.3292" stroke="black" stroke-width="1"/>
<line x1="622.6666666666667" y1="326.3888" x2="640.6666666666667" y2="326.3888" stroke="black" stroke-width="1"/>
<line x1="622.6666666666667" y1="346.11760000000004" x2="640.6666666666667" y2="346.11760000000004" stroke="black" stroke-width="1"/>
<line x1="622.6666666666667" y1="404.87239999999997" x2="640.6666666666667" y2="404.87239999999997" stroke="black" stroke-width="1"/>
<line x1="622.6666666666667" y1="487.2716" x2="640.6666666666667" y2="487.2716" stroke="black" stroke-width="1"/>
<text x="631.6666666666667" y="558" text-anchor="middle" font-family="Arial" font-size="14">chr4</text>
<text x="631.6666666666667" y="577" text-anchor="middle" font-family="Arial" font-size="12">16</text>
<line x1="775.0" y1="152.6828" x2="775.0" y2="442.9962" stroke="black" stroke-width="2"/>
<line x1="766.0" y1="152.6828" x2="784.0" y2="152.6828" stroke="black" stroke-width="1"/>
<line x1="766.0" y1="163.647" x2="784.0" y2="163.647" stroke="black" stroke-width="1"/>
<line x1="766.0" y1="210.2312" x2="784.0" y2="210.2312" stroke="black" stroke-width="1"/>
<line x1="766.0" y1="211.1932" x2="784.0" y2="211.1932" stroke="black" stroke-width="1"/>
<line x1="766.0" y1="252.4552" x2="784.0" y2="252.4552" stroke="black" stroke-width="1"/>
<line x1="766.0" y1="253.0168" x2="784.0" y2="253.0168" stroke="black" stroke-width="1"/>
<line x1="766.0" y1="254.6132" x2="784.0" y2="254.6132" stroke="black" stroke-width="1"/>
<line x1="766.0" y1="269.8596" x2="784.0" y2="269.8596" stroke="black" stroke-width="1"/>
<line x1="766.0" y1="274.54740000000004" x2="784.0" y2="274.54740000000004" stroke="black" stroke-width="1"/>
<line x1="766.0" y1="284.118" x2="784.0" y2="284.118" stroke="black" stroke-width="1"/>
<line x1="766.0" y1="289.27639999999997" x2="784.0" y2="289.27639999999997" stroke="black" stroke-width="1"/>
<line x1="766.0" y1="291.9492" x2="784.0" y2="291.9492" stroke="black" stroke-width="1"/>
<line x1="766.0" y1="303.0434" x2="784.0" y2="303.0434" stroke="black" stroke-width="1"/>
<line x1="766.0" y1="305.009" x2="784.0" y2="305.009" stroke="black" stroke-width="1"/>
<line x1="766.0" y1="310.001" x2="784.0" y2="310.001" stroke="black" stroke-width="1"/>
<line x1="766.0" y1="318.737" x2="784.0" y2="318.737" stroke="black" stroke-width="1"/>
<line x1="766.0" y1="324.2958" x2="784.0" y2="324.2958" stroke="black" stroke-width="1"/>
<line x1="766.0" y1="342.73499999999996" x2="784.0" y2="342.73499999999996" stroke="black" stroke-width="1"/>
<line x1="766.0" y1="344.152" x2="784.0" y2="344.152" stroke="black" stroke-width="1"/>
<line x1="766.0" y1="383.997" x2="784.0" y2="383.997" stroke="black" stroke-width="1"/>
<line x1="766.0" y1="391.36800000000005" x2="784.0" y2="391.36800000000005" stroke="black" stroke-width="1"/>
<line x1="766.0" y1="418.9878" x2="784.0" y2="418.9878" stroke="black" stroke-width="1"/>
<line x1="766.0" y1="421.4448" x2="784.0" y2="421.4448" stroke="black" stroke-width="1"/>
<line x1="766.0" y1="442.9962" x2="784.0" y2="442.9962" stroke="black" stroke-width="1"/>
<text x="775.0" y="558" text-anchor="middle" font-family="Arial" font-size="14">chr5</text>
<text x="775.0" y="577" text-anchor="middle" font-family="Arial" font-size="12">24</text>
<line x1="918.3333333333334" y1="217.4124" x2="918.3333333333334" y2="354.18280000000004" stroke="black" stroke-width="2"/>
<line x1="909.3333333333334" y1="217.4124" x2="927.3333333333334" y2="217.4124" stroke="black" stroke-width="1"/>
<line x1="909.3333333333334" y1="222.3056" x2="927.3333333333334" y2="222.3056" stroke="black" stroke-width="1"/>
<line x1="909.3333333333334" y1="263.01120000000003" x2="927.3333333333334" y2="263.01120000000003" stroke="black" stroke-width="1"/>
<line x1="909.3333333333334" y1="264.2722" x2="927.3333333333334" y2="264.2722" stroke="black" stroke-width="1"/>
<line x1="909.3333333333334" y1="272.35299999999995" x2="927.3333333333334" y2="272.35299999999995" stroke="black" stroke-width="1"/>
<line x1="909.3333333333334" y1="280.5716" x2="927.3333333333334" y2="280.5716" stroke="black" stroke-width="1"/>
<line x1="909.3333333333334" y1="300.1652" x2="927.3333333333334" y2="300.1652" stroke="black" stroke-width="1"/>
<line x1="909.3333333333334" y1="306.29859999999996" x2="927.3333333333334" y2="306.29859999999996" stroke="black" stroke-width="1"/>
<line x1="909.3333333333334" y1="315.76520000000005" x2="927.3333333333334" y2="315.76520000000005" stroke="black" stroke-width="1"/>
<line x1="909.3333333333334" y1="316.2514" x2="927.3333333333334" y2="316.2514" stroke="black" stroke-width="1"/>
<line x1="909.3333333333334" y1="316.7116" x2="927.3333333333334" y2="316.7116" stroke="black" stroke-width="1"/>
<line x1="909.3333333333334" y1="322.5694" x2="927.3333333333334" y2="322.5694" stroke="black" stroke-width="1"/>
<line x1="909.3333333333334" y1="322.7436" x2="927.3333333333334" y2="322.7436" stroke="black" stroke-width="1"/>
<line x1="909.3333333333334" y1="323.4456" x2="927.3333333333334" y2="323.4456" stroke="black" stroke-width="1"/>
<line x1="909.3333333333334" y1="326.5162" x2="927.3333333333334" y2="326.5162" stroke="black" stroke-width="1"/>
<line x1="909.3333333333334" y1="329.96119999999996" x2="927.3333333333334" y2="329.96119999999996" stroke="black" stroke-width="1"/>
<line x1="909.3333333333334" y1="330.4838" x2="927.3333333333334" y2="330.4838" stroke="black" stroke-width="1"/>
<line x1="909.3333333333334" y1="337.19960000000003" x2="927.3333333333334" y2="337.19960000000003" stroke="black" stroke-width="1"/>
<line x1="909.3333333333334" y1="352.73199999999997" x2="927.3333333333334" y2="352.73199999999997" stroke="black" stroke-width="1"/>
<line x1="909.3333333333334" y1="353.81100000000004" x2="927.3333333333334" y2="353.81100000000004" stroke="black" stroke-width="1"/>
<line x1="909.3333333333334" y1="354.18280000000004" x2="927.3333333333334" y2="354.18280000000004" stroke="black" stroke-width="1"/>
<text x="918.3333333333334" y="558" text-anchor="middle" font-family="Arial" font-size="14">chr6</text>
<text x="918.3333333333334" y="577" text-anchor="middle" font-family="Arial" font-size="12">21</text>
<line x1="1061.6666666666667" y1="197.90460000000002" x2="1061.6666666666667" y2="387.2028" stroke="black" stroke-width="2"/>
<line x1="1052.6666666666667" y1="197.90460000000002" x2="1070.6666666666667" y2="197.90460000000002" stroke="black" stroke-width="1"/>
<line x1="1052.6666666666667" y1="206.52100000000002" x2="1070.6666666666667" y2="206.52100000000002" stroke="black" stroke-width="1"/>
<line x1="1052.6666666666667" y1="220.041" x2="1070.6666666666667" y2="220.041" stroke="black" stroke-width="1"/>
<line x1="1052.6666666666667" y1="221.98059999999998" x2="1070.6666666666667" y2="221.98059999999998" stroke="black" stroke-width="1"/>
<line x1="1052.6666666666667" y1="236.7616" x2="1070.6666666666667" y2="236.7616" stroke="black" stroke-width="1"/>
<line x1="1052.6666666666667" y1="245.90840000000003" x2="1070.6666666666667" y2="245.90840000000003" stroke="black" stroke-width="1"/>
<line x1="1052.6666666666667" y1="250.591" x2="1070.6666666666667" y2="250.591" stroke="black" stroke-width="1"/>
<line x1="1052.6666666666667" y1="266.9346" x2="1070.6666666666667" y2="266.9346" stroke="black" stroke-width="1"/>
<line x1="1052.6666666666667" y1="267.9876" x2="1070.6666666666667" y2="267.9876" stroke="black" stroke-width="1"/>
<line x1="1052.6666666666667" y1="278.2654" x2="1070.6666666666667" y2="278.2654" stroke="black" stroke-width="1"/>
<line x1="1052.6666666666667" y1="284.49760000000003" x2="1070.6666666666667" y2="284.49760000000003" stroke="black" stroke-width="1"/>
<line x1="1052.6666666666667" y1="290.7454" x2="1070.6666666666667" y2="290.7454" stroke="black" stroke-width="1"/>
<line x1="1052.6666666666667" y1="304.23159999999996" x2="1070.6666666666667" y2="304.23159999999996" stroke="black" stroke-width="1"/>
<line x1="1052.6666666666667" y1="314.4028" x2="1070.6666666666667" y2="314.4028" stroke="black" stroke-width="1"/>
<line x1="1052.6666666666667" y1="330.0964" x2="1070.6666666666667" y2="330.0964" stroke="black" stroke-width="1"/>
<line x1="1052.6666666666667" y1="335.12219999999996" x2="1070.6666666666667" y2="335.12219999999996" stroke="black" stroke-width="1"/>
<line x1="1052.6666666666667" y1="336.248" x2="1070.6666666666667" y2="336.248" stroke="black" stroke-width="1"/>
<line x1="1052.6666666666667" y1="382.1692" x2="1070.6666666666667" y2="382.1692" stroke="black" stroke-width="1"/>
<line x1="1052.6666666666667" y1="385.1124" x2="1070.6666666666667" y2="385.1124" stroke="black" stroke-width="1"/>
<line x1="1052.6666666666667" y1="386.2382" x2="1070.6666666666667" y2="386.2382" stroke="black" stroke-width="1"/>
<line x1="1052.6666666666667" y1="387.04679999999996" x2="1070.6666666666667" y2="387.04679999999996" stroke="black" stroke-width="1"/>
<line x1="1052.6666666666667" y1="387.2028" x2="1070.6666666666667" y2="387.2028" stroke="black" stroke-width="1"/>
<text x="1061.6666666666667" y="558" text-anchor="middle" font-family="Arial" font-size="14">chr7</text>
<text x="1061.6666666666667" y="577" text-anchor="middle" font-family="Arial" font-size="12">22</text>
<line x1="1205.0" y1="223.0856" x2="1205.0" y2="446.007" stroke="black" stroke-width="2"/>
<line x1="1196.0" y1="223.0856" x2="1214.0" y2="223.0856" stroke="black" stroke-width="1"/>
<line x1="1196.0" y1="227.92940000000002" x2="1214.0" y2="227.92940000000002" stroke="black" stroke-width="1"/>
<line x1="1196.0" y1="228.9278" x2="1214.0" y2="228.9278" stroke="black" stroke-width="1"/>
<line x1="1196.0" y1="229.7052" x2="1214.0" y2="229.7052" stroke="black" stroke-width="1"/>
<line x1="1196.0" y1="246.262" x2="1214.0" y2="246.262" stroke="black" stroke-width="1"/>
<line x1="1196.0" y1="261.8854" x2="1214.0" y2="261.8854" stroke="black" stroke-width="1"/>
<line x1="1196.0" y1="278.68399999999997" x2="1214.0" y2="278.68399999999997" stroke="black" stroke-width="1"/>
<line x1="1196.0" y1="281.05" x2="1214.0" y2="281.05" stroke="black" stroke-width="1"/>
<line x1="1196.0" y1="305.1728" x2="1214.0" y2="305.1728" stroke="black" stroke-width="1"/>
<line x1="1196.0" y1="312.17719999999997" x2="1214.0" y2="312.17719999999997" stroke="black" stroke-width="1"/>
<line x1="1196.0" y1="318.2066" x2="1214.0" y2="318.2066" stroke="black" stroke-width="1"/>
<line x1="1196.0" y1="329.5452" x2="1214.0" y2="329.5452" stroke="black" stroke-width="1"/>
<line x1="1196.0" y1="330.4214" x2="1214.0" y2="330.4214" stroke="black" stroke-width="1"/>
<line x1="1196.0" y1="331.6902" x2="1214.0" y2="331.6902" stroke="black" stroke-width="1"/>
<line x1="1196.0" y1="336.4066" x2="1214.0" y2="336.4066" stroke="black" stroke-width="1"/>
<line x1="1196.0" y1="336.8538" x2="1214.0" y2="336.8538" stroke="black" stroke-width="1"/>
<line x1="1196.0" y1="341.0164" x2="1214.0" y2="341.0164" stroke="black" stroke-width="1"/>
<line x1="1196.0" y1="346.544" x2="1214.0" y2="346.544" stroke="black" stroke-width="1"/>
<line x1="1196.0" y1="358.8394" x2="1214.0" y2="358.8394" stroke="black" stroke-width="1"/>
<line x1="1196.0" y1="361.4784" x2="1214.0" y2="361.4784" stroke="black" stroke-width="1"/>
<line x1="1196.0" y1="364.1278" x2="1214.0" y2="364.1278" stroke="black" stroke-width="1"/>
<line x1="1196.0" y1="381.2904" x2="1214.0" y2="381.2904" stroke="black" stroke-width="1"/>
<line x1="1196.0" y1="384.7484" x2="1214.0" y2="384.7484" stroke="black" stroke-width="1"/>
<line x1="1196.0" y1="391.0326" x2="1214.0" y2="391.0326" stroke="black" stroke-width="1"/>
<line x1="1196.0" y1="391.9608" x2="1214.0" y2="391.9608" stroke="black" stroke-width="1"/>
<line x1="1196.0" y1="408.6164" x2="1214.0" y2="408.6164" stroke="black" stroke-width="1"/>
<line x1="1196.0" y1="420.2722" x2="1214.0" y2="420.2722" stroke="black" stroke-width="1"/>
<line x1="1196.0" y1="427.2558" x2="1214.0" y2="427.2558" stroke="black" stroke-width="1"/>
<line x1="1196.0" y1="444.4106" x2="1214.0" y2="444.4106" stroke="black" stroke-width="1"/>
<line x1="1196.0" y1="446.007" x2="1214.0" y2="446.007" stroke="black" stroke-width="1"/>
<text x="1205.0" y="558" text-anchor="middle" font-family="Arial" font-size="14">chr8</text>
<text x="1205.0" y="577" text-anchor="middle" font-family="Arial" font-size="12">30</text>
<line x1="1348.3333333333335" y1="187.7672" x2="1348.3333333333335" y2="468.4424" stroke="black" stroke-width="2"/>
<line x1="1339.3333333333335" y1="187.7672" x2="1357.3333333333335" y2="187.7672" stroke="black" stroke-width="1"/>
<line x1="1339.3333333333335" y1="195.3254" x2="1357.3333333333335" y2="195.3254" stroke="black" stroke-width="1"/>
<line x1="1339.3333333333335" y1="233.0618" x2="1357.3333333333335" y2="233.0618" stroke="black" stroke-width="1"/>
<line x1="1339.3333333333335" y1="238.1006" x2="1357.3333333333335" y2="238.1006" stroke="black" stroke-width="1"/>
<line x1="1339.3333333333335" y1="252.5488" x2="1357.3333333333335" y2="252.5488" stroke="black" stroke-width="1"/>
<line x1="1339.3333333333335" y1="281.8586" x2="1357.3333333333335" y2="281.8586" stroke="black" stroke-width="1"/>
<line x1="1339.3333333333335" y1="286.08619999999996" x2="1357.3333333333335" y2="286.08619999999996" stroke="black" stroke-width="1"/>
<line x1="1339.3333333333335" y1="293.5716" x2="1357.3333333333335" y2="293.5716" stroke="black" stroke-width="1"/>
<line x1="1339.3333333333335" y1="296.0078" x2="1357.3333333333335" y2="296.0078" stroke="black" stroke-width="1"/>
<line x1="1339.3333333333335" y1="302.1932" x2="1357.3333333333335" y2="302.1932" stroke="black" stroke-width="1"/>
<line x1="1339.3333333333335" y1="313.2328" x2="1357.3333333333335" y2="313.2328" stroke="black" stroke-width="1"/>
<line x1="1339.3333333333335" y1="332.92" x2="1357.3333333333335" y2="332.92" stroke="black" stroke-width="1"/>
<line x1="1339.3333333333335" y1="363.8288" x2="1357.3333333333335" y2="363.8288" stroke="black" stroke-width="1"/>
<line x1="1339.3333333333335" y1="383.62780000000004" x2="1357.3333333333335" y2="383.62780000000004" stroke="black" stroke-width="1"/>
<line x1="1339.3333333333335" y1="398.50759999999997" x2="1357.3333333333335" y2="398.50759999999997" stroke="black" stroke-width="1"/>
<line x1="1339.3333333333335" y1="401.2168" x2="1357.3333333333335" y2="401.2168" stroke="black" stroke-width="1"/>
<line x1="1339.3333333333335" y1="427.17" x2="1357.3333333333335" y2="427.17" stroke="black" stroke-width="1"/>
<line x1="1339.3333333333335" y1="438.87" x2="1357.3333333333335" y2="438.87" stroke="black" stroke-width="1"/>
<line x1="1339.3333333333335" y1="468.4424" x2="1357.3333333333335" y2="468.4424" stroke="black" stroke-width="1"/>
<text x="1348.3333333333335" y="558" text-anchor="middle" font-family="Arial" font-size="14">chr9</text>
<text x="1348.3333333333335" y="577" text-anchor="middle" font-family="Arial" font-size="12">19</text>
<text x="1420" y="577" text-anchor="end" font-family="Arial" font-size="12">numbers = markers per chromosome</text>
<text x="130" y="685" font-family="Arial" font-size="20" font-weight="bold">Relaxed mm1 collinear, 222 markers</text>
<line x1="105" y1="720" x2="105" y2="1110" stroke="black" stroke-width="1"/>
<line x1="100" y1="720.0" x2="105" y2="720.0" stroke="black" stroke-width="1"/>
<text x="92" y="724.0" text-anchor="end" font-family="Arial" font-size="12">0</text>
<line x1="100" y1="798.0" x2="105" y2="798.0" stroke="black" stroke-width="1"/>
<text x="92" y="802.0" text-anchor="end" font-family="Arial" font-size="12">30</text>
<line x1="100" y1="876.0" x2="105" y2="876.0" stroke="black" stroke-width="1"/>
<text x="92" y="880.0" text-anchor="end" font-family="Arial" font-size="12">60</text>
<line x1="100" y1="954.0" x2="105" y2="954.0" stroke="black" stroke-width="1"/>
<text x="92" y="958.0" text-anchor="end" font-family="Arial" font-size="12">90</text>
<line x1="100" y1="1032.0" x2="105" y2="1032.0" stroke="black" stroke-width="1"/>
<text x="92" y="1036.0" text-anchor="end" font-family="Arial" font-size="12">120</text>
<line x1="100" y1="1110.0" x2="105" y2="1110.0" stroke="black" stroke-width="1"/>
<text x="92" y="1114.0" text-anchor="end" font-family="Arial" font-size="12">150</text>
<text x="50" y="915.0" transform="rotate(-90 50,915.0)" text-anchor="middle" font-family="Arial" font-size="14">Genetic position, cM</text>
<line x1="201.66666666666669" y1="720.0" x2="201.66666666666669" y2="933.5848" stroke="black" stroke-width="2"/>
<line x1="192.66666666666669" y1="720.0" x2="210.66666666666669" y2="720.0" stroke="black" stroke-width="1"/>
<line x1="192.66666666666669" y1="751.9774" x2="210.66666666666669" y2="751.9774" stroke="black" stroke-width="1"/>
<line x1="192.66666666666669" y1="777.5406" x2="210.66666666666669" y2="777.5406" stroke="black" stroke-width="1"/>
<line x1="192.66666666666669" y1="796.4295999999999" x2="210.66666666666669" y2="796.4295999999999" stroke="black" stroke-width="1"/>
<line x1="192.66666666666669" y1="820.4094" x2="210.66666666666669" y2="820.4094" stroke="black" stroke-width="1"/>
<line x1="192.66666666666669" y1="828.524" x2="210.66666666666669" y2="828.524" stroke="black" stroke-width="1"/>
<line x1="192.66666666666669" y1="843.9264000000001" x2="210.66666666666669" y2="843.9264000000001" stroke="black" stroke-width="1"/>
<line x1="192.66666666666669" y1="851.8668" x2="210.66666666666669" y2="851.8668" stroke="black" stroke-width="1"/>
<line x1="192.66666666666669" y1="891.7898" x2="210.66666666666669" y2="891.7898" stroke="black" stroke-width="1"/>
<line x1="192.66666666666669" y1="892.7102" x2="210.66666666666669" y2="892.7102" stroke="black" stroke-width="1"/>
<line x1="192.66666666666669" y1="893.8958" x2="210.66666666666669" y2="893.8958" stroke="black" stroke-width="1"/>
<line x1="192.66666666666669" y1="896.6569999999999" x2="210.66666666666669" y2="896.6569999999999" stroke="black" stroke-width="1"/>
<line x1="192.66666666666669" y1="912.2518" x2="210.66666666666669" y2="912.2518" stroke="black" stroke-width="1"/>
<line x1="192.66666666666669" y1="913.596" x2="210.66666666666669" y2="913.596" stroke="black" stroke-width="1"/>
<line x1="192.66666666666669" y1="914.4696" x2="210.66666666666669" y2="914.4696" stroke="black" stroke-width="1"/>
<line x1="192.66666666666669" y1="917.223" x2="210.66666666666669" y2="917.223" stroke="black" stroke-width="1"/>
<line x1="192.66666666666669" y1="918.0342" x2="210.66666666666669" y2="918.0342" stroke="black" stroke-width="1"/>
<line x1="192.66666666666669" y1="918.1902" x2="210.66666666666669" y2="918.1902" stroke="black" stroke-width="1"/>
<line x1="192.66666666666669" y1="933.5848" x2="210.66666666666669" y2="933.5848" stroke="black" stroke-width="1"/>
<text x="201.66666666666669" y="1138" text-anchor="middle" font-family="Arial" font-size="14">chr1</text>
<text x="201.66666666666669" y="1157" text-anchor="middle" font-family="Arial" font-size="12">19</text>
<line x1="345.0" y1="855.1792" x2="345.0" y2="1108.9184" stroke="black" stroke-width="2"/>
<line x1="336.0" y1="855.1792" x2="354.0" y2="855.1792" stroke="black" stroke-width="1"/>
<line x1="336.0" y1="875.6386" x2="354.0" y2="875.6386" stroke="black" stroke-width="1"/>
<line x1="336.0" y1="898.7422" x2="354.0" y2="898.7422" stroke="black" stroke-width="1"/>
<line x1="336.0" y1="949.3642" x2="354.0" y2="949.3642" stroke="black" stroke-width="1"/>
<line x1="336.0" y1="973.7964" x2="354.0" y2="973.7964" stroke="black" stroke-width="1"/>
<line x1="336.0" y1="990.1478" x2="354.0" y2="990.1478" stroke="black" stroke-width="1"/>
<line x1="336.0" y1="1001.359" x2="354.0" y2="1001.359" stroke="black" stroke-width="1"/>
<line x1="336.0" y1="1004.1592" x2="354.0" y2="1004.1592" stroke="black" stroke-width="1"/>
<line x1="336.0" y1="1017.2684" x2="354.0" y2="1017.2684" stroke="black" stroke-width="1"/>
<line x1="336.0" y1="1031.2849999999999" x2="354.0" y2="1031.2849999999999" stroke="black" stroke-width="1"/>
<line x1="336.0" y1="1045.8008" x2="354.0" y2="1045.8008" stroke="black" stroke-width="1"/>
<line x1="336.0" y1="1045.8268" x2="354.0" y2="1045.8268" stroke="black" stroke-width="1"/>
<line x1="336.0" y1="1047.4232" x2="354.0" y2="1047.4232" stroke="black" stroke-width="1"/>
<line x1="336.0" y1="1048.0732" x2="354.0" y2="1048.0732" stroke="black" stroke-width="1"/>
<line x1="336.0" y1="1048.4450000000002" x2="354.0" y2="1048.4450000000002" stroke="black" stroke-width="1"/>
<line x1="336.0" y1="1055.9434" x2="354.0" y2="1055.9434" stroke="black" stroke-width="1"/>
<line x1="336.0" y1="1064.7756" x2="354.0" y2="1064.7756" stroke="black" stroke-width="1"/>
<line x1="336.0" y1="1067.0272" x2="354.0" y2="1067.0272" stroke="black" stroke-width="1"/>
<line x1="336.0" y1="1078.9326" x2="354.0" y2="1078.9326" stroke="black" stroke-width="1"/>
<line x1="336.0" y1="1089.3742" x2="354.0" y2="1089.3742" stroke="black" stroke-width="1"/>
<line x1="336.0" y1="1108.9184" x2="354.0" y2="1108.9184" stroke="black" stroke-width="1"/>
<text x="345.0" y="1138" text-anchor="middle" font-family="Arial" font-size="14">chr2</text>
<text x="345.0" y="1157" text-anchor="middle" font-family="Arial" font-size="12">21</text>
<line x1="488.33333333333337" y1="749.848" x2="488.33333333333337" y2="1109.9324" stroke="black" stroke-width="2"/>
<line x1="479.33333333333337" y1="749.848" x2="497.33333333333337" y2="749.848" stroke="black" stroke-width="1"/>
<line x1="479.33333333333337" y1="778.9576" x2="497.33333333333337" y2="778.9576" stroke="black" stroke-width="1"/>
<line x1="479.33333333333337" y1="782.127" x2="497.33333333333337" y2="782.127" stroke="black" stroke-width="1"/>
<line x1="479.33333333333337" y1="784.6802" x2="497.33333333333337" y2="784.6802" stroke="black" stroke-width="1"/>
<line x1="479.33333333333337" y1="805.8338" x2="497.33333333333337" y2="805.8338" stroke="black" stroke-width="1"/>
<line x1="479.33333333333337" y1="816.1896" x2="497.33333333333337" y2="816.1896" stroke="black" stroke-width="1"/>
<line x1="479.33333333333337" y1="824.6266" x2="497.33333333333337" y2="824.6266" stroke="black" stroke-width="1"/>
<line x1="479.33333333333337" y1="828.9218" x2="497.33333333333337" y2="828.9218" stroke="black" stroke-width="1"/>
<line x1="479.33333333333337" y1="840.6998" x2="497.33333333333337" y2="840.6998" stroke="black" stroke-width="1"/>
<line x1="479.33333333333337" y1="853.3124" x2="497.33333333333337" y2="853.3124" stroke="black" stroke-width="1"/>
<line x1="479.33333333333337" y1="874.5778" x2="497.33333333333337" y2="874.5778" stroke="black" stroke-width="1"/>
<line x1="479.33333333333337" y1="882.3908" x2="497.33333333333337" y2="882.3908" stroke="black" stroke-width="1"/>
<line x1="479.33333333333337" y1="882.7626" x2="497.33333333333337" y2="882.7626" stroke="black" stroke-width="1"/>
<line x1="479.33333333333337" y1="884.203" x2="497.33333333333337" y2="884.203" stroke="black" stroke-width="1"/>
<line x1="479.33333333333337" y1="895.812" x2="497.33333333333337" y2="895.812" stroke="black" stroke-width="1"/>
<line x1="479.33333333333337" y1="897.2238" x2="497.33333333333337" y2="897.2238" stroke="black" stroke-width="1"/>
<line x1="479.33333333333337" y1="910.3252" x2="497.33333333333337" y2="910.3252" stroke="black" stroke-width="1"/>
<line x1="479.33333333333337" y1="913.9028000000001" x2="497.33333333333337" y2="913.9028000000001" stroke="black" stroke-width="1"/>
<line x1="479.33333333333337" y1="917.9614" x2="497.33333333333337" y2="917.9614" stroke="black" stroke-width="1"/>
<line x1="479.33333333333337" y1="919.1444" x2="497.33333333333337" y2="919.1444" stroke="black" stroke-width="1"/>
<line x1="479.33333333333337" y1="935.306" x2="497.33333333333337" y2="935.306" stroke="black" stroke-width="1"/>
<line x1="479.33333333333337" y1="948.8234" x2="497.33333333333337" y2="948.8234" stroke="black" stroke-width="1"/>
<line x1="479.33333333333337" y1="975.5046" x2="497.33333333333337" y2="975.5046" stroke="black" stroke-width="1"/>
<line x1="479.33333333333337" y1="992.0224000000001" x2="497.33333333333337" y2="992.0224000000001" stroke="black" stroke-width="1"/>
<line x1="479.33333333333337" y1="992.3994" x2="497.33333333333337" y2="992.3994" stroke="black" stroke-width="1"/>
<line x1="479.33333333333337" y1="1015.5237999999999" x2="497.33333333333337" y2="1015.5237999999999" stroke="black" stroke-width="1"/>
<line x1="479.33333333333337" y1="1019.5486" x2="497.33333333333337" y2="1019.5486" stroke="black" stroke-width="1"/>
<line x1="479.33333333333337" y1="1021.0488" x2="497.33333333333337" y2="1021.0488" stroke="black" stroke-width="1"/>
<line x1="479.33333333333337" y1="1039.0095999999999" x2="497.33333333333337" y2="1039.0095999999999" stroke="black" stroke-width="1"/>
<line x1="479.33333333333337" y1="1039.6492" x2="497.33333333333337" y2="1039.6492" stroke="black" stroke-width="1"/>
<line x1="479.33333333333337" y1="1041.1806000000001" x2="497.33333333333337" y2="1041.1806000000001" stroke="black" stroke-width="1"/>
<line x1="479.33333333333337" y1="1045.1612" x2="497.33333333333337" y2="1045.1612" stroke="black" stroke-width="1"/>
<line x1="479.33333333333337" y1="1057.0952" x2="497.33333333333337" y2="1057.0952" stroke="black" stroke-width="1"/>
<line x1="479.33333333333337" y1="1074.5308" x2="497.33333333333337" y2="1074.5308" stroke="black" stroke-width="1"/>
<line x1="479.33333333333337" y1="1086.093" x2="497.33333333333337" y2="1086.093" stroke="black" stroke-width="1"/>
<line x1="479.33333333333337" y1="1089.0855999999999" x2="497.33333333333337" y2="1089.0855999999999" stroke="black" stroke-width="1"/>
<line x1="479.33333333333337" y1="1109.9324" x2="497.33333333333337" y2="1109.9324" stroke="black" stroke-width="1"/>
<text x="488.33333333333337" y="1138" text-anchor="middle" font-family="Arial" font-size="14">chr3</text>
<text x="488.33333333333337" y="1157" text-anchor="middle" font-family="Arial" font-size="12">37</text>
<line x1="631.6666666666667" y1="769.7562" x2="631.6666666666667" y2="1067.2716" stroke="black" stroke-width="2"/>
<line x1="622.6666666666667" y1="769.7562" x2="640.6666666666667" y2="769.7562" stroke="black" stroke-width="1"/>
<line x1="622.6666666666667" y1="822.7728" x2="640.6666666666667" y2="822.7728" stroke="black" stroke-width="1"/>
<line x1="622.6666666666667" y1="851.8954" x2="640.6666666666667" y2="851.8954" stroke="black" stroke-width="1"/>
<line x1="622.6666666666667" y1="877.0738" x2="640.6666666666667" y2="877.0738" stroke="black" stroke-width="1"/>
<line x1="622.6666666666667" y1="877.5314" x2="640.6666666666667" y2="877.5314" stroke="black" stroke-width="1"/>
<line x1="622.6666666666667" y1="879.4632" x2="640.6666666666667" y2="879.4632" stroke="black" stroke-width="1"/>
<line x1="622.6666666666667" y1="879.692" x2="640.6666666666667" y2="879.692" stroke="black" stroke-width="1"/>
<line x1="622.6666666666667" y1="879.9259999999999" x2="640.6666666666667" y2="879.9259999999999" stroke="black" stroke-width="1"/>
<line x1="622.6666666666667" y1="881.7304" x2="640.6666666666667" y2="881.7304" stroke="black" stroke-width="1"/>
<line x1="622.6666666666667" y1="882.8198" x2="640.6666666666667" y2="882.8198" stroke="black" stroke-width="1"/>
<line x1="622.6666666666667" y1="883.1942" x2="640.6666666666667" y2="883.1942" stroke="black" stroke-width="1"/>
<line x1="622.6666666666667" y1="901.3292" x2="640.6666666666667" y2="901.3292" stroke="black" stroke-width="1"/>
<line x1="622.6666666666667" y1="906.3888" x2="640.6666666666667" y2="906.3888" stroke="black" stroke-width="1"/>
<line x1="622.6666666666667" y1="926.1176" x2="640.6666666666667" y2="926.1176" stroke="black" stroke-width="1"/>
<line x1="622.6666666666667" y1="984.8724" x2="640.6666666666667" y2="984.8724" stroke="black" stroke-width="1"/>
<line x1="622.6666666666667" y1="1008.7482" x2="640.6666666666667" y2="1008.7482" stroke="black" stroke-width="1"/>
<line x1="622.6666666666667" y1="1067.2716" x2="640.6666666666667" y2="1067.2716" stroke="black" stroke-width="1"/>
<text x="631.6666666666667" y="1138" text-anchor="middle" font-family="Arial" font-size="14">chr4</text>
<text x="631.6666666666667" y="1157" text-anchor="middle" font-family="Arial" font-size="12">17</text>
<line x1="775.0" y1="732.6828" x2="775.0" y2="1022.9962" stroke="black" stroke-width="2"/>
<line x1="766.0" y1="732.6828" x2="784.0" y2="732.6828" stroke="black" stroke-width="1"/>
<line x1="766.0" y1="743.647" x2="784.0" y2="743.647" stroke="black" stroke-width="1"/>
<line x1="766.0" y1="788.3982" x2="784.0" y2="788.3982" stroke="black" stroke-width="1"/>
<line x1="766.0" y1="790.2312" x2="784.0" y2="790.2312" stroke="black" stroke-width="1"/>
<line x1="766.0" y1="791.1932" x2="784.0" y2="791.1932" stroke="black" stroke-width="1"/>
<line x1="766.0" y1="832.4552" x2="784.0" y2="832.4552" stroke="black" stroke-width="1"/>
<line x1="766.0" y1="833.0168" x2="784.0" y2="833.0168" stroke="black" stroke-width="1"/>
<line x1="766.0" y1="834.6132" x2="784.0" y2="834.6132" stroke="black" stroke-width="1"/>
<line x1="766.0" y1="849.8596" x2="784.0" y2="849.8596" stroke="black" stroke-width="1"/>
<line x1="766.0" y1="854.5474" x2="784.0" y2="854.5474" stroke="black" stroke-width="1"/>
<line x1="766.0" y1="864.1179999999999" x2="784.0" y2="864.1179999999999" stroke="black" stroke-width="1"/>
<line x1="766.0" y1="869.2764" x2="784.0" y2="869.2764" stroke="black" stroke-width="1"/>
<line x1="766.0" y1="871.9492" x2="784.0" y2="871.9492" stroke="black" stroke-width="1"/>
<line x1="766.0" y1="883.0434" x2="784.0" y2="883.0434" stroke="black" stroke-width="1"/>
<line x1="766.0" y1="890.001" x2="784.0" y2="890.001" stroke="black" stroke-width="1"/>
<line x1="766.0" y1="898.7370000000001" x2="784.0" y2="898.7370000000001" stroke="black" stroke-width="1"/>
<line x1="766.0" y1="904.2958" x2="784.0" y2="904.2958" stroke="black" stroke-width="1"/>
<line x1="766.0" y1="920.2988" x2="784.0" y2="920.2988" stroke="black" stroke-width="1"/>
<line x1="766.0" y1="922.7349999999999" x2="784.0" y2="922.7349999999999" stroke="black" stroke-width="1"/>
<line x1="766.0" y1="924.152" x2="784.0" y2="924.152" stroke="black" stroke-width="1"/>
<line x1="766.0" y1="963.9970000000001" x2="784.0" y2="963.9970000000001" stroke="black" stroke-width="1"/>
<line x1="766.0" y1="971.368" x2="784.0" y2="971.368" stroke="black" stroke-width="1"/>
<line x1="766.0" y1="998.9878" x2="784.0" y2="998.9878" stroke="black" stroke-width="1"/>
<line x1="766.0" y1="1001.4448" x2="784.0" y2="1001.4448" stroke="black" stroke-width="1"/>
<line x1="766.0" y1="1022.9962" x2="784.0" y2="1022.9962" stroke="black" stroke-width="1"/>
<text x="775.0" y="1138" text-anchor="middle" font-family="Arial" font-size="14">chr5</text>
<text x="775.0" y="1157" text-anchor="middle" font-family="Arial" font-size="12">25</text>
<line x1="918.3333333333334" y1="797.4123999999999" x2="918.3333333333334" y2="934.1828" stroke="black" stroke-width="2"/>
<line x1="909.3333333333334" y1="797.4123999999999" x2="927.3333333333334" y2="797.4123999999999" stroke="black" stroke-width="1"/>
<line x1="909.3333333333334" y1="802.3056" x2="927.3333333333334" y2="802.3056" stroke="black" stroke-width="1"/>
<line x1="909.3333333333334" y1="843.0112" x2="927.3333333333334" y2="843.0112" stroke="black" stroke-width="1"/>
<line x1="909.3333333333334" y1="844.2722" x2="927.3333333333334" y2="844.2722" stroke="black" stroke-width="1"/>
<line x1="909.3333333333334" y1="852.353" x2="927.3333333333334" y2="852.353" stroke="black" stroke-width="1"/>
<line x1="909.3333333333334" y1="860.5716" x2="927.3333333333334" y2="860.5716" stroke="black" stroke-width="1"/>
<line x1="909.3333333333334" y1="872.6434" x2="927.3333333333334" y2="872.6434" stroke="black" stroke-width="1"/>
<line x1="909.3333333333334" y1="880.1652" x2="927.3333333333334" y2="880.1652" stroke="black" stroke-width="1"/>
<line x1="909.3333333333334" y1="886.2986" x2="927.3333333333334" y2="886.2986" stroke="black" stroke-width="1"/>
<line x1="909.3333333333334" y1="895.7652" x2="927.3333333333334" y2="895.7652" stroke="black" stroke-width="1"/>
<line x1="909.3333333333334" y1="895.9992" x2="927.3333333333334" y2="895.9992" stroke="black" stroke-width="1"/>
<line x1="909.3333333333334" y1="896.2514" x2="927.3333333333334" y2="896.2514" stroke="black" stroke-width="1"/>
<line x1="909.3333333333334" y1="896.7116" x2="927.3333333333334" y2="896.7116" stroke="black" stroke-width="1"/>
<line x1="909.3333333333334" y1="902.5694" x2="927.3333333333334" y2="902.5694" stroke="black" stroke-width="1"/>
<line x1="909.3333333333334" y1="902.7436" x2="927.3333333333334" y2="902.7436" stroke="black" stroke-width="1"/>
<line x1="909.3333333333334" y1="903.4456" x2="927.3333333333334" y2="903.4456" stroke="black" stroke-width="1"/>
<line x1="909.3333333333334" y1="906.5162" x2="927.3333333333334" y2="906.5162" stroke="black" stroke-width="1"/>
<line x1="909.3333333333334" y1="909.9612" x2="927.3333333333334" y2="909.9612" stroke="black" stroke-width="1"/>
<line x1="909.3333333333334" y1="910.4838" x2="927.3333333333334" y2="910.4838" stroke="black" stroke-width="1"/>
<line x1="909.3333333333334" y1="912.0255999999999" x2="927.3333333333334" y2="912.0255999999999" stroke="black" stroke-width="1"/>
<line x1="909.3333333333334" y1="917.1996" x2="927.3333333333334" y2="917.1996" stroke="black" stroke-width="1"/>
<line x1="909.3333333333334" y1="932.732" x2="927.3333333333334" y2="932.732" stroke="black" stroke-width="1"/>
<line x1="909.3333333333334" y1="933.811" x2="927.3333333333334" y2="933.811" stroke="black" stroke-width="1"/>
<line x1="909.3333333333334" y1="934.1828" x2="927.3333333333334" y2="934.1828" stroke="black" stroke-width="1"/>
<text x="918.3333333333334" y="1138" text-anchor="middle" font-family="Arial" font-size="14">chr6</text>
<text x="918.3333333333334" y="1157" text-anchor="middle" font-family="Arial" font-size="12">24</text>
<line x1="1061.6666666666667" y1="777.9046" x2="1061.6666666666667" y2="967.2028" stroke="black" stroke-width="2"/>
<line x1="1052.6666666666667" y1="777.9046" x2="1070.6666666666667" y2="777.9046" stroke="black" stroke-width="1"/>
<line x1="1052.6666666666667" y1="786.521" x2="1070.6666666666667" y2="786.521" stroke="black" stroke-width="1"/>
<line x1="1052.6666666666667" y1="800.0409999999999" x2="1070.6666666666667" y2="800.0409999999999" stroke="black" stroke-width="1"/>
<line x1="1052.6666666666667" y1="801.9806" x2="1070.6666666666667" y2="801.9806" stroke="black" stroke-width="1"/>
<line x1="1052.6666666666667" y1="816.7616" x2="1070.6666666666667" y2="816.7616" stroke="black" stroke-width="1"/>
<line x1="1052.6666666666667" y1="825.9084" x2="1070.6666666666667" y2="825.9084" stroke="black" stroke-width="1"/>
<line x1="1052.6666666666667" y1="830.591" x2="1070.6666666666667" y2="830.591" stroke="black" stroke-width="1"/>
<line x1="1052.6666666666667" y1="846.9346" x2="1070.6666666666667" y2="846.9346" stroke="black" stroke-width="1"/>
<line x1="1052.6666666666667" y1="847.9876" x2="1070.6666666666667" y2="847.9876" stroke="black" stroke-width="1"/>
<line x1="1052.6666666666667" y1="858.2654" x2="1070.6666666666667" y2="858.2654" stroke="black" stroke-width="1"/>
<line x1="1052.6666666666667" y1="864.4976" x2="1070.6666666666667" y2="864.4976" stroke="black" stroke-width="1"/>
<line x1="1052.6666666666667" y1="870.7454" x2="1070.6666666666667" y2="870.7454" stroke="black" stroke-width="1"/>
<line x1="1052.6666666666667" y1="884.2316" x2="1070.6666666666667" y2="884.2316" stroke="black" stroke-width="1"/>
<line x1="1052.6666666666667" y1="894.4028000000001" x2="1070.6666666666667" y2="894.4028000000001" stroke="black" stroke-width="1"/>
<line x1="1052.6666666666667" y1="910.0964" x2="1070.6666666666667" y2="910.0964" stroke="black" stroke-width="1"/>
<line x1="1052.6666666666667" y1="915.1222" x2="1070.6666666666667" y2="915.1222" stroke="black" stroke-width="1"/>
<line x1="1052.6666666666667" y1="916.248" x2="1070.6666666666667" y2="916.248" stroke="black" stroke-width="1"/>
<line x1="1052.6666666666667" y1="962.1692" x2="1070.6666666666667" y2="962.1692" stroke="black" stroke-width="1"/>
<line x1="1052.6666666666667" y1="965.1124" x2="1070.6666666666667" y2="965.1124" stroke="black" stroke-width="1"/>
<line x1="1052.6666666666667" y1="966.2382" x2="1070.6666666666667" y2="966.2382" stroke="black" stroke-width="1"/>
<line x1="1052.6666666666667" y1="967.0468" x2="1070.6666666666667" y2="967.0468" stroke="black" stroke-width="1"/>
<line x1="1052.6666666666667" y1="967.2028" x2="1070.6666666666667" y2="967.2028" stroke="black" stroke-width="1"/>
<text x="1061.6666666666667" y="1138" text-anchor="middle" font-family="Arial" font-size="14">chr7</text>
<text x="1061.6666666666667" y="1157" text-anchor="middle" font-family="Arial" font-size="12">22</text>
<line x1="1205.0" y1="803.0856" x2="1205.0" y2="1026.007" stroke="black" stroke-width="2"/>
<line x1="1196.0" y1="803.0856" x2="1214.0" y2="803.0856" stroke="black" stroke-width="1"/>
<line x1="1196.0" y1="807.9294" x2="1214.0" y2="807.9294" stroke="black" stroke-width="1"/>
<line x1="1196.0" y1="808.9278" x2="1214.0" y2="808.9278" stroke="black" stroke-width="1"/>
<line x1="1196.0" y1="809.7052" x2="1214.0" y2="809.7052" stroke="black" stroke-width="1"/>
<line x1="1196.0" y1="819.9648" x2="1214.0" y2="819.9648" stroke="black" stroke-width="1"/>
<line x1="1196.0" y1="826.262" x2="1214.0" y2="826.262" stroke="black" stroke-width="1"/>
<line x1="1196.0" y1="833.2482" x2="1214.0" y2="833.2482" stroke="black" stroke-width="1"/>
<line x1="1196.0" y1="841.8854" x2="1214.0" y2="841.8854" stroke="black" stroke-width="1"/>
<line x1="1196.0" y1="844.5165999999999" x2="1214.0" y2="844.5165999999999" stroke="black" stroke-width="1"/>
<line x1="1196.0" y1="857.267" x2="1214.0" y2="857.267" stroke="black" stroke-width="1"/>
<line x1="1196.0" y1="858.684" x2="1214.0" y2="858.684" stroke="black" stroke-width="1"/>
<line x1="1196.0" y1="861.05" x2="1214.0" y2="861.05" stroke="black" stroke-width="1"/>
<line x1="1196.0" y1="885.1728" x2="1214.0" y2="885.1728" stroke="black" stroke-width="1"/>
<line x1="1196.0" y1="892.1772" x2="1214.0" y2="892.1772" stroke="black" stroke-width="1"/>
<line x1="1196.0" y1="898.2066" x2="1214.0" y2="898.2066" stroke="black" stroke-width="1"/>
<line x1="1196.0" y1="909.5452" x2="1214.0" y2="909.5452" stroke="black" stroke-width="1"/>
<line x1="1196.0" y1="910.4214" x2="1214.0" y2="910.4214" stroke="black" stroke-width="1"/>
<line x1="1196.0" y1="911.6902" x2="1214.0" y2="911.6902" stroke="black" stroke-width="1"/>
<line x1="1196.0" y1="916.4066" x2="1214.0" y2="916.4066" stroke="black" stroke-width="1"/>
<line x1="1196.0" y1="917.5766" x2="1214.0" y2="917.5766" stroke="black" stroke-width="1"/>
<line x1="1196.0" y1="921.0164" x2="1214.0" y2="921.0164" stroke="black" stroke-width="1"/>
<line x1="1196.0" y1="926.544" x2="1214.0" y2="926.544" stroke="black" stroke-width="1"/>
<line x1="1196.0" y1="936.9803999999999" x2="1214.0" y2="936.9803999999999" stroke="black" stroke-width="1"/>
<line x1="1196.0" y1="938.8394000000001" x2="1214.0" y2="938.8394000000001" stroke="black" stroke-width="1"/>
<line x1="1196.0" y1="941.4784" x2="1214.0" y2="941.4784" stroke="black" stroke-width="1"/>
<line x1="1196.0" y1="944.1278" x2="1214.0" y2="944.1278" stroke="black" stroke-width="1"/>
<line x1="1196.0" y1="956.4024" x2="1214.0" y2="956.4024" stroke="black" stroke-width="1"/>
<line x1="1196.0" y1="960.318" x2="1214.0" y2="960.318" stroke="black" stroke-width="1"/>
<line x1="1196.0" y1="964.7484" x2="1214.0" y2="964.7484" stroke="black" stroke-width="1"/>
<line x1="1196.0" y1="971.0326" x2="1214.0" y2="971.0326" stroke="black" stroke-width="1"/>
<line x1="1196.0" y1="971.9608000000001" x2="1214.0" y2="971.9608000000001" stroke="black" stroke-width="1"/>
<line x1="1196.0" y1="988.6164" x2="1214.0" y2="988.6164" stroke="black" stroke-width="1"/>
<line x1="1196.0" y1="995.8833999999999" x2="1214.0" y2="995.8833999999999" stroke="black" stroke-width="1"/>
<line x1="1196.0" y1="1000.2722" x2="1214.0" y2="1000.2722" stroke="black" stroke-width="1"/>
<line x1="1196.0" y1="1007.2558" x2="1214.0" y2="1007.2558" stroke="black" stroke-width="1"/>
<line x1="1196.0" y1="1024.4106" x2="1214.0" y2="1024.4106" stroke="black" stroke-width="1"/>
<line x1="1196.0" y1="1026.007" x2="1214.0" y2="1026.007" stroke="black" stroke-width="1"/>
<text x="1205.0" y="1138" text-anchor="middle" font-family="Arial" font-size="14">chr8</text>
<text x="1205.0" y="1157" text-anchor="middle" font-family="Arial" font-size="12">37</text>
<line x1="1348.3333333333335" y1="767.7672" x2="1348.3333333333335" y2="1048.4424" stroke="black" stroke-width="2"/>
<line x1="1339.3333333333335" y1="767.7672" x2="1357.3333333333335" y2="767.7672" stroke="black" stroke-width="1"/>
<line x1="1339.3333333333335" y1="775.3254" x2="1357.3333333333335" y2="775.3254" stroke="black" stroke-width="1"/>
<line x1="1339.3333333333335" y1="813.0618" x2="1357.3333333333335" y2="813.0618" stroke="black" stroke-width="1"/>
<line x1="1339.3333333333335" y1="818.1006" x2="1357.3333333333335" y2="818.1006" stroke="black" stroke-width="1"/>
<line x1="1339.3333333333335" y1="832.5488" x2="1357.3333333333335" y2="832.5488" stroke="black" stroke-width="1"/>
<line x1="1339.3333333333335" y1="841.5526" x2="1357.3333333333335" y2="841.5526" stroke="black" stroke-width="1"/>
<line x1="1339.3333333333335" y1="861.8586" x2="1357.3333333333335" y2="861.8586" stroke="black" stroke-width="1"/>
<line x1="1339.3333333333335" y1="866.0862" x2="1357.3333333333335" y2="866.0862" stroke="black" stroke-width="1"/>
<line x1="1339.3333333333335" y1="873.5716" x2="1357.3333333333335" y2="873.5716" stroke="black" stroke-width="1"/>
<line x1="1339.3333333333335" y1="876.0078" x2="1357.3333333333335" y2="876.0078" stroke="black" stroke-width="1"/>
<line x1="1339.3333333333335" y1="882.1931999999999" x2="1357.3333333333335" y2="882.1931999999999" stroke="black" stroke-width="1"/>
<line x1="1339.3333333333335" y1="893.2328" x2="1357.3333333333335" y2="893.2328" stroke="black" stroke-width="1"/>
<line x1="1339.3333333333335" y1="912.9200000000001" x2="1357.3333333333335" y2="912.9200000000001" stroke="black" stroke-width="1"/>
<line x1="1339.3333333333335" y1="943.8288" x2="1357.3333333333335" y2="943.8288" stroke="black" stroke-width="1"/>
<line x1="1339.3333333333335" y1="963.6278" x2="1357.3333333333335" y2="963.6278" stroke="black" stroke-width="1"/>
<line x1="1339.3333333333335" y1="978.5075999999999" x2="1357.3333333333335" y2="978.5075999999999" stroke="black" stroke-width="1"/>
<line x1="1339.3333333333335" y1="981.2167999999999" x2="1357.3333333333335" y2="981.2167999999999" stroke="black" stroke-width="1"/>
<line x1="1339.3333333333335" y1="1007.1700000000001" x2="1357.3333333333335" y2="1007.1700000000001" stroke="black" stroke-width="1"/>
<line x1="1339.3333333333335" y1="1018.87" x2="1357.3333333333335" y2="1018.87" stroke="black" stroke-width="1"/>
<line x1="1339.3333333333335" y1="1048.4424" x2="1357.3333333333335" y2="1048.4424" stroke="black" stroke-width="1"/>
<text x="1348.3333333333335" y="1138" text-anchor="middle" font-family="Arial" font-size="14">chr9</text>
<text x="1348.3333333333335" y="1157" text-anchor="middle" font-family="Arial" font-size="12">20</text>
<text x="1420" y="1157" text-anchor="end" font-family="Arial" font-size="12">numbers = markers per chromosome</text>

</svg>
